<?xml version="1.0" standalone="no"?>
<!DOCTYPE svg PUBLIC "-//W3C//DTD SVG 1.1//EN" "http://www.w3.org/Graphics/SVG/1.1/DTD/svg11.dtd" >
<svg xmlns="http://www.w3.org/2000/svg" xmlns:xlink="http://www.w3.org/1999/xlink" version="1.1">
<metadata>
Created by FontForge 20161003 at Tue Apr  9 11:17:57 2019
 By www-data
Copyright (c) 2012 by Yanone. All rights reserved.
</metadata>
<defs>
<font id="YanoneKaffeesatzBold" horiz-adv-x="400" >
  <font-face 
    font-family="YanoneKaffeesatzBold"
    font-weight="700"
    font-stretch="normal"
    units-per-em="1000"
    panose-1="0 0 8 0 0 0 0 0 0 0"
    ascent="800"
    descent="-200"
    x-height="500"
    cap-height="700"
    bbox="-90 -222 933 958"
    underline-thickness="50"
    underline-position="-150"
    unicode-range="U+000D-FB02"
  />
<missing-glyph horiz-adv-x="216" 
 />
    <glyph glyph-name="fi" unicode="fi" horiz-adv-x="409" 
d="M70 407h-60q0 67 3.5 80t23.5 13h33v57q0 56 16 93.5t45.5 55.5t60.5 25t71 7q131 0 131 -63q0 -35 -11 -65q-48 28 -115 28q-45 0 -65.5 -15t-20.5 -62v-61h52q0 -65 -3.5 -79t-17.5 -14h-31v-387q0 -20 -20 -20h-92v407zM377 500v-480q0 -15 -14.5 -17.5t-99.5 -2.5
v451q0 35 19.5 42t94.5 7z" />
    <glyph glyph-name="fl" unicode="fl" horiz-adv-x="419" 
d="M70 500v57q0 55 15.5 93t42.5 56t52.5 25t55.5 7q86 0 150 -42v-676q0 -20 -20 -20h-92v644q-15 4 -30 4q-62 0 -62 -69v-79h58q0 -65 -3.5 -79t-17.5 -14h-37v-387q0 -20 -20 -20h-92v407h-60q0 67 3.5 80t23.5 13h33z" />
    <glyph glyph-name="f_f" unicode="ff" horiz-adv-x="450" 
d="M70 500v64q0 170 158 170q50 0 95 -24q42 28 111 28q54 0 77 -14t23 -46q0 -23 -11 -53q-27 13 -68 13t-62 -15t-21 -54v-69h72q0 -65 -3.5 -79t-17.5 -14h-51v-387q0 -20 -20 -20h-92v407h-78v-387q0 -20 -20 -20h-92v407h-60q0 67 3.5 80t23.5 13h33zM260 500v57
q0 42 10 77q-15 6 -37 6q-51 0 -51 -61v-79h78z" />
    <glyph glyph-name="f_f_i" unicode="ffi" horiz-adv-x="594" 
d="M65 500v64q0 170 158 170q53 0 98 -25q45 29 127 29q131 0 131 -63q0 -35 -11 -65q-48 28 -115 28q-45 0 -65.5 -15t-20.5 -62v-61h52q0 -65 -3.5 -79t-17.5 -14h-31v-387q0 -20 -20 -20h-92v407h-78v-387q0 -20 -20 -20h-92v407h-60q0 67 3.5 80t23.5 13h33zM255 500v57
q0 44 11 77q-15 6 -38 6q-51 0 -51 -61v-79h78zM448 0v451q0 35 20 42t94 7v-480q0 -15 -14.5 -17.5t-99.5 -2.5z" />
    <glyph glyph-name="f_f_l" unicode="ffl" horiz-adv-x="605" 
d="M572 698l-1 -1h1v-677q0 -15 -14 -17.5t-98 -2.5v635q-16 4 -30 4q-63 0 -63 -66v-73h51q0 -65 -3.5 -79t-17.5 -14h-30v-387q0 -20 -20 -20h-92v407h-78v-387q0 -20 -20 -20h-92v407h-60q0 67 3.5 80t23.5 13h33v64q0 170 158 170q51 0 96 -24q42 29 102 29
q85 0 151 -41zM255 500v57q0 44 11 77q-15 6 -38 6q-51 0 -51 -61v-79h78z" />
    <glyph glyph-name=".notdef" horiz-adv-x="216" 
 />
    <glyph glyph-name=".null" horiz-adv-x="0" 
 />
    <glyph glyph-name="nonmarkingreturn" horiz-adv-x="333" 
 />
    <glyph glyph-name="CR" unicode="&#xd;" horiz-adv-x="140" 
 />
    <glyph glyph-name="space" unicode=" " horiz-adv-x="140" 
 />
    <glyph glyph-name="exclam" unicode="!" horiz-adv-x="202" 
d="M47 241l-21 432q-1 23 25.5 28t132.5 5l-25 -413q-2 -36 -22 -44t-90 -8zM30 63q0 31 19 52t52 21q71 0 71 -73q0 -30 -19 -50.5t-52 -20.5q-39 0 -55 17.5t-16 53.5z" />
    <glyph glyph-name="quotedbl" unicode="&#x22;" horiz-adv-x="289" 
d="M106 586l-61 -3l-18 142q-4 53 1 56q15 6 46.5 6t57.5 -4q-2 -48 -11 -120t-15 -77zM238 586l-61 -3l-18 142q-4 53 1 56q15 6 46.5 6t57.5 -4q-2 -48 -11 -120t-15 -77z" />
    <glyph glyph-name="numbersign" unicode="#" 
d="M336 350l-5 -84h54q0 -54 -3 -70t-17 -16h-38l-3 -53q-1 -14 -20.5 -17t-76.5 -3l4 73h-74l-3 -53q-1 -14 -20.5 -17t-76.5 -3l4 73h-46q0 54 3 70t17 16h30l5 84h-55q0 54 3 70t17 16h39l3 51q1 14 20.5 17t76.5 3l-4 -71h74l3 51q1 14 20.5 17t76.5 3l-4 -71h45
q0 -54 -3 -70t-17 -16h-29zM161 266h74l5 84h-74z" />
    <glyph glyph-name="dollar" unicode="$" 
d="M193 410l118 -128q46 -52 46 -121q0 -134 -118 -162v-81q0 -25 -23.5 -33t-78.5 -8v116q-48 4 -74.5 18t-26.5 28q0 12 8 44.5t18 47.5q37 -28 102 -28q68 0 68 59q0 23 -8.5 39.5t-33.5 45.5l-112 124q-43 51 -43 107q0 57 31.5 91t90.5 44v82q0 25 24 34t78 9v-123
q34 -3 57.5 -9.5t32 -13.5t8.5 -14q0 -44 -27 -76q-27 17 -89 17q-41 0 -61 -8t-20 -30q0 -20 6.5 -34t26.5 -37z" />
    <glyph glyph-name="percent" unicode="%" horiz-adv-x="667" 
d="M106 34l382 675q61 -21 61 -47q0 -8 -93.5 -175.5t-187.5 -330.5l-94 -164q-68 21 -68 42zM25 526q0 182 142 182q71 0 102 -39t31 -141q0 -98 -35 -143.5t-106 -45.5q-73 0 -103.5 37.5t-30.5 149.5zM132 526q0 -63 7.5 -82.5t25.5 -19.5q32 0 32 102q0 62 -6 80t-25 18
q-17 0 -25.5 -20t-8.5 -78zM367 178q0 182 142 182q71 0 102 -39t31 -141q0 -98 -35 -143.5t-106 -45.5q-73 0 -103.5 37.5t-30.5 149.5zM472 175q0 -64 7.5 -83t26.5 -19q33 0 33 102q0 62 -6 80t-26 18q-18 0 -26.5 -20t-8.5 -78z" />
    <glyph glyph-name="ampersand" unicode="&#x26;" horiz-adv-x="489" 
d="M432 411h-21q11 -37 11 -120q0 -77 -21 -143q53 -58 83 -69q-4 -35 -29 -62t-44 -27q-17 0 -68 56q-53 -56 -140 -56q-188 0 -188 179q0 59 30.5 108t78.5 81q-74 135 -74 210q0 63 41 100.5t126 37.5q70 0 112.5 -14t42.5 -38q0 -49 -28 -83q-49 36 -113 36
q-34 0 -48 -9.5t-14 -44.5q0 -38 41.5 -120.5t101.5 -169.5q1 15 1 41q0 111 -31 191q32 9 124 9q34 0 66 -3q3 -20 3 -38q0 -17 -2 -26.5t-12 -17.5t-29 -8zM197 95q48 0 76 35q-59 78 -101 147q-41 -39 -41 -110q0 -34 17 -53t49 -19z" />
    <glyph glyph-name="quotesingle" unicode="'" horiz-adv-x="157" 
d="M106 586l-61 -3l-18 142q-4 53 1 56q15 6 46.5 6t57.5 -4q-2 -48 -11 -120t-15 -77z" />
    <glyph glyph-name="parenleft" unicode="(" horiz-adv-x="290" 
d="M174 323q-1 -148 26.5 -264.5t70.5 -166.5q-9 -44 -21 -64.5t-39 -20.5q-7 0 -23.5 16t-38.5 56t-42 95.5t-34 146.5t-14 197q0 96 14 180.5t33.5 137.5t41.5 92.5t37.5 56.5t22.5 17q28 0 41.5 -15t21.5 -56q-96 -143 -97 -408z" />
    <glyph glyph-name="parenright" unicode=")" horiz-adv-x="290" 
d="M116 323q-2 285 -97 408q8 41 21.5 56t41.5 15q7 0 22.5 -16t37.5 -54t41.5 -91t33.5 -138.5t14 -184.5q0 -97 -14 -184.5t-34 -145t-42 -100t-38.5 -62t-23.5 -19.5q-27 0 -39 20.5t-21 64.5q98 138 97 431z" />
    <glyph glyph-name="asterisk" unicode="*" horiz-adv-x="469" 
d="M294 678l-27 -149q-3 -17 -11 -21t-38 1l-30 155q-3 28 37.5 29t68.5 -15zM288 501l140 87q26 -23 30 -63.5t-20 -46.5l-151 -28q-16 24 -15 33t16 18zM79 577l119 -86q1 -24 -8.5 -33t-24.5 -3l-154 35q-1 47 23 72t45 15zM317 238l-68 155q-7 13 -1.5 21.5t31.5 18.5
l118 -124q18 -22 -13 -44t-67 -27zM56 308l122 111q25 22 49 -10l-78 -156q-16 -24 -45.5 -1.5t-47.5 56.5z" />
    <glyph glyph-name="plus" unicode="+" 
d="M248 330h127q0 -57 -3 -76.5t-17 -19.5h-107v-107q0 -14 -19.5 -17t-76.5 -3v127h-127q0 57 3 76.5t17 19.5h107v107q0 14 19.5 17t76.5 3v-127z" />
    <glyph glyph-name="comma" unicode="," horiz-adv-x="188" 
d="M29 68q0 27 18.5 46t45.5 19q71 0 71 -73q0 -56 -35.5 -106t-56.5 -50q-35 0 -42 29q21 35 27 75q-28 17 -28 60z" />
    <glyph glyph-name="hyphen" unicode="-" horiz-adv-x="264" 
d="M214 234h-184q0 57 3 76.5t17 19.5h184q0 -57 -3 -76.5t-17 -19.5z" />
    <glyph glyph-name="period" unicode="." horiz-adv-x="188" 
d="M23 64q0 31 19 52t52 21q71 0 71 -73q0 -30 -19 -50.5t-52 -20.5q-39 0 -55 17.5t-16 53.5z" />
    <glyph glyph-name="slash" unicode="/" horiz-adv-x="368" 
d="M358 765l-224 -759q-5 -19 -22 -22.5t-102 -3.5l224 756q4 11 6.5 15.5t16 8.5t34.5 4.5t67 0.5z" />
    <glyph glyph-name="zero" unicode="0" 
d="M20 296q0 153 43 228.5t136 75.5q94 0 137.5 -66.5t43.5 -200.5q0 -179 -39.5 -260.5t-143.5 -81.5q-43 0 -74.5 14t-51 38.5t-31 63.5t-16 83.5t-4.5 105.5zM142 292q0 -119 11 -160t48 -41q32 0 46.5 55t14.5 187q0 86 -12 127.5t-45 41.5q-38 0 -50.5 -51.5
t-12.5 -158.5z" />
    <glyph glyph-name="one" unicode="1" 
d="M146 105l9 381q-23 -1 -47 -4t-36 -6l-12 -2q-17 30 -17 69q0 16 79.5 36.5t123.5 20.5q22 0 29 -6l-12 -489h56l61 4q0 -70 -3.5 -89.5t-21.5 -19.5h-333q-3 38 -3 74q0 18 27.5 24.5t99.5 6.5z" />
    <glyph glyph-name="two" unicode="2" 
d="M354 0h-330q-4 12 -4 31q0 27 5 43.5t21 45.5q32 56 85 124.5t82.5 114t29.5 81.5q0 25 -16 39t-43 14q-28 0 -68 -9t-63 -22q-14 31 -14 82q0 23 55.5 39.5t124.5 16.5q82 0 117.5 -35t35.5 -106q0 -54 -27.5 -104.5t-86.5 -125.5t-89 -124h74q37 0 71 2.5t50 5.5l16 3
q0 -74 -4 -95t-22 -21z" />
    <glyph glyph-name="three" unicode="3" 
d="M47 463v-1q-14 31 -14 82q0 24 48.5 40t125.5 16q71 0 105 -33t34 -88q0 -111 -97 -180q55 -6 87.5 -43.5t32.5 -104.5q0 -128 -63.5 -189.5t-163.5 -61.5q-103 0 -103 54q0 29 14 82q29 -29 89 -29q52 0 78.5 37t26.5 101q0 51 -43 72.5t-111 18.5v68q60 24 92 60.5
t32 75.5q0 26 -10 39.5t-42 13.5q-61 0 -118 -30z" />
    <glyph glyph-name="four" unicode="4" 
d="M319 592v-386l61 5q1 -1 2 -3.5t2 -12.5t1 -22q-2 -71 -37 -71h-29v-70q0 -24 -14.5 -28t-97.5 -4v102h-153q-38 38 -38 107q0 30 79.5 192t113.5 188q23 18 48 18q39 0 62 -15zM111 206h96l15 247q-25 -32 -62 -115.5t-49 -131.5z" />
    <glyph glyph-name="five" unicode="5" 
d="M65 600h306q0 -62 -9.5 -80.5t-46.5 -18.5l-155 6l-12 -124q20 4 43 4q26 0 47.5 -3t47.5 -15t43.5 -32t29.5 -56.5t12 -86.5q0 -136 -61 -215t-171 -79q-38 0 -64.5 8t-36.5 17t-10 17q0 55 12 91q30 -29 85 -29q59 0 92.5 51t33.5 111q0 76 -24.5 102.5t-104.5 26.5
q-44 0 -88 -11z" />
    <glyph glyph-name="six" unicode="6" 
d="M246 441q136 0 136 -194q0 -255 -188 -255q-47 0 -79.5 15.5t-50.5 39.5t-27.5 70.5t-12 89.5t-2.5 115q0 108 16 184t47.5 118t70.5 60.5t91 18.5q108 0 108 -40q0 -42 -11 -79q-40 14 -82 14q-65 0 -97.5 -48.5t-36.5 -161.5q41 53 118 53zM200 91q33 0 52.5 39
t19.5 94q0 114 -61 114q-43 0 -82 -47q1 -5 1 -13q-6 -187 70 -187z" />
    <glyph glyph-name="seven" unicode="7" 
d="M36 600h360q-103 -232 -153.5 -397t-51.5 -295q-71 0 -93 6t-22 25q0 108 57.5 285.5t116.5 281.5q-87 -6 -184 -6q-30 0 -30 100z" />
    <glyph glyph-name="eight" unicode="8" 
d="M330 319q52 -61 52 -136q0 -78 -45.5 -134t-128.5 -56q-97 0 -141.5 54t-44.5 139q0 118 97 188q-43 35 -64 65q-26 37 -26 91q0 84 47.5 130t121.5 46q183 0 183 -162q0 -104 -96 -179q28 -26 45 -46zM214 601q-32 0 -52 -16t-20 -48q0 -34 21 -61q15 -18 50 -49
q64 56 64 113q0 23 -17 42t-46 19zM200 100q31 0 51.5 22.5t20.5 63.5q0 48 -29 81q-13 15 -45 43q-72 -54 -72 -116q0 -45 21 -69.5t53 -24.5z" />
    <glyph glyph-name="nine" unicode="9" 
d="M206 609q106 0 138 -62.5t36 -258.5q-2 -202 -60 -297t-189 -95q-96 0 -96 43q0 39 10 74q37 -11 71 -11q56 0 90.5 29.5t47.5 71t17 103.5q-42 -52 -117 -52q-61 0 -98.5 55t-37.5 150q0 250 188 250zM189 257q47 0 84 46v6q0 116 -13.5 158.5t-51.5 42.5
q-36 0 -58 -35.5t-22 -103.5q0 -114 61 -114z" />
    <glyph glyph-name="colon" unicode=":" horiz-adv-x="188" 
d="M24 385q0 31 19 52t52 21q71 0 71 -73q0 -30 -19 -50.5t-52 -20.5q-39 0 -55 17.5t-16 53.5zM24 64q0 31 19 52t52 21q71 0 71 -73q0 -30 -19 -50.5t-52 -20.5q-39 0 -55 17.5t-16 53.5z" />
    <glyph glyph-name="semicolon" unicode=";" horiz-adv-x="188" 
d="M19 385q0 31 19 52t52 21q71 0 71 -73q0 -30 -19 -50.5t-52 -20.5q-39 0 -55 17.5t-16 53.5zM23 68q0 27 18.5 46t45.5 19q71 0 71 -73q0 -56 -35.5 -106t-56.5 -50q-35 0 -42 29q21 35 27 75q-28 17 -28 60z" />
    <glyph glyph-name="less" unicode="&#x3c;" 
d="M347 334l-169 -82l190 -88q-1 -33 -17 -59.5t-33 -26.5q-10 0 -31 8l-236 105q-18 31 -18 65q0 42 35 60l258 124q38 -33 40 -74q0 -24 -19 -32z" />
    <glyph glyph-name="equal" unicode="=" 
d="M355 334h-330q0 57 3 76.5t17 19.5h330q0 -57 -3 -76.5t-17 -19.5zM355 134h-330q0 57 3 76.5t17 19.5h330q0 -57 -3 -76.5t-17 -19.5z" />
    <glyph glyph-name="greater" unicode="&#x3e;" 
d="M58 170l170 82l-190 88q1 33 17 59.5t33 26.5q10 0 31 -8l236 -105q18 -31 18 -65q0 -43 -36 -60l-258 -125q-37 36 -39 74q0 25 18 33z" />
    <glyph glyph-name="question" unicode="?" horiz-adv-x="294" 
d="M145 710q69 0 104 -38t35 -99q0 -57 -15.5 -96.5t-47 -82t-41.5 -61.5q-9 -20 -0.5 -55.5t2.5 -43.5q-9 -10 -43.5 -13t-57.5 1q-2 3 -4 8.5t-7 21.5t-7.5 31.5t0 36.5t11.5 39q16 32 41.5 71t36 63t10.5 50q0 27 -14.5 40.5t-48.5 13.5q-20 0 -37 -5.5t-24 -10.5l-7 -5
q-18 48 -18 90q0 20 42 32t90 12zM60 64q0 31 19 52t52 21q71 0 71 -73q0 -30 -19 -50.5t-52 -20.5q-39 0 -55 17.5t-16 53.5z" />
    <glyph glyph-name="at" unicode="@" horiz-adv-x="719" 
d="M493 382l-3 -184q-2 -69 -4 -98q14 -2 20 -2q58 0 58 232q0 147 -37 198.5t-147 51.5q-123 0 -174 -70.5t-51 -261.5q0 -186 43 -257.5t153 -71.5q140 0 232 32q30 -43 30 -76q0 -31 -66.5 -48.5t-186.5 -17.5q-61 0 -104.5 8.5t-87 36.5t-69.5 76.5t-42.5 132
t-16.5 200.5q0 210 90 313.5t251 103.5q149 0 224.5 -71.5t75.5 -244.5q0 -92 -10.5 -160.5t-26 -106.5t-38.5 -60.5t-42.5 -29t-43.5 -6.5q-37 0 -61 21q-24 -21 -104 -21q-63 0 -94 30.5t-31 127.5q0 165 101 165q36 0 55 -14q1 33 1 58q1 19 -8 27t-29 8q-47 0 -91 -24
q-12 23 -12 64q1 15 9 23q40 29 130 29q56 0 82 -25t25 -88zM383 147l2 99q-5 2 -17 2q-17 0 -24.5 -20t-6.5 -73q1 -57 8 -65q6 -6 15 -6q13 0 17.5 11.5t5.5 51.5z" />
    <glyph glyph-name="A" unicode="A" horiz-adv-x="437" 
d="M267 698l167 -680q2 -7 -1.5 -11t-15 -6.5t-33.5 -2.5q-36 0 -65 2l-33 159h-133l-29 -140q-2 -8 -4.5 -12t-13.5 -6.5t-33 -2.5q-36 0 -71 4l167 679q4 21 45 21q34 0 53 -4zM174 260h91l-19 93q-15 71 -26 189q-14 -127 -27 -189z" />
    <glyph glyph-name="B" unicode="B" horiz-adv-x="358" 
d="M30 0v680q0 20 28 20h98q169 0 169 -157q0 -71 -27.5 -113t-64.5 -47q115 -12 115 -145q0 -107 -45.5 -172.5t-141.5 -65.5h-131zM144 602v-178h19q18 0 28 26t10 69q0 83 -34 83h-23zM144 330v-233h20q23 0 36.5 35t13.5 96q0 63 -11 82.5t-37 19.5h-22z" />
    <glyph glyph-name="C" unicode="C" horiz-adv-x="325" 
d="M220 715q58 0 76.5 -15.5t18.5 -43.5q0 -33 -16 -67q-23 17 -52 17q-109 0 -109 -270q0 -128 17.5 -177t60.5 -49q50 0 78 15q15 -32 15 -66q0 -35 -32.5 -54.5t-89.5 -19.5q-60 0 -94.5 26.5t-53.5 102.5t-19 213q0 388 200 388z" />
    <glyph glyph-name="D" unicode="D" horiz-adv-x="360" 
d="M58 700h96q71 0 111 -24.5t62.5 -94.5t22.5 -196q0 -201 -45 -293t-146 -92h-129v680q0 20 28 20zM142 106h20q10 0 18 5.5t16 24t13 49.5t8.5 84.5t3.5 127.5q0 86 -8 131.5t-20 57.5t-32 12h-19v-492z" />
    <glyph glyph-name="E" unicode="E" horiz-adv-x="300" 
d="M142 328v-228h141q0 -72 -2.5 -86t-17.5 -14h-233v680q1 20 20 20h240q0 -70 -2.5 -85t-17.5 -15h-128v-170h121q0 -68 -2.5 -85t-16.5 -17h-102z" />
    <glyph glyph-name="F" unicode="F" horiz-adv-x="295" 
d="M50 700h240q0 -69 -2.5 -82t-17.5 -13h-128v-175h121q0 -68 -2.5 -85t-16.5 -17h-102v-308q2 -20 -18 -20h-94v680q1 20 20 20z" />
    <glyph glyph-name="G" unicode="G" horiz-adv-x="369" 
d="M348 425v-404q-46 -30 -138 -30q-78 0 -117.5 29t-56 99.5t-16.5 207.5q0 95 10 163t27 110.5t45.5 67t60.5 33t77 8.5q52 0 80.5 -16.5t28.5 -40.5q0 -29 -14 -69q-25 20 -71 20q-73 0 -98 -58.5t-25 -208.5q0 -102 7 -152.5t21 -67t43 -16.5q23 0 32 9v224h-46v72
q0 20 24 20h126z" />
    <glyph glyph-name="H" unicode="H" horiz-adv-x="382" 
d="M351 700v-680v-1q0 -14 -14 -16.5t-98 -2.5v323h-96v-303v-1q0 -14 -14 -16.5t-98 -2.5v680v1q0 14 14 16.5t98 2.5v-275h96v255v1q0 14 14 16.5t98 2.5z" />
    <glyph glyph-name="I" unicode="I" horiz-adv-x="174" 
d="M30 0v651q0 37 15 43t99 6v-680q0 -15 -14.5 -17.5t-99.5 -2.5z" />
    <glyph glyph-name="J" unicode="J" horiz-adv-x="301" 
d="M157 183v468q0 37 14.5 43t99.5 6v-539q0 -86 -35 -128t-115 -42q-65 0 -88 18t-23 49q0 26 15 61q39 -29 80 -29q32 0 42 18t10 75z" />
    <glyph glyph-name="K" unicode="K" horiz-adv-x="388" 
d="M142 414l109 279q36 8 72 8q30 0 42 -6.5t6 -21.5l-114 -272q108 -101 108 -380q0 -14 -9 -18.5t-38 -4.5q-38 0 -80 3q0 231 -66 305q-13 14 -30 22v-308q0 -15 -14.5 -17.5t-99.5 -2.5v680q0 15 14 17.5t100 2.5v-286z" />
    <glyph glyph-name="L" unicode="L" horiz-adv-x="298" 
d="M142 700v-595h141v-85q0 -20 -20 -20h-233v672q0 21 14.5 24.5t97.5 3.5z" />
    <glyph glyph-name="M" unicode="M" horiz-adv-x="477" 
d="M265 452l68 228q4 12 7.5 16t12.5 4h94v-680q0 -15 -14.5 -17.5t-100.5 -2.5l5 190q2 72 9 146.5t14 113.5l6 39l-3 2q-34 -136 -50 -184l-48 -133q-2 -7 -11 -7h-46l-47 140q-9 28 -48 184l-4 -2q27 -134 29 -298l3 -171q0 -15 -15.5 -17.5t-95.5 -2.5v680q0 9 3 14
t6.5 5.5t10.5 0.5h85l79 -246q9 -28 15.5 -53t8.5 -37l3 -11q6 40 24 99z" />
    <glyph glyph-name="N" unicode="N" horiz-adv-x="430" 
d="M288 447v233q0 15 14.5 17.5t97.5 2.5v-680q0 -20 -20 -20h-87l-106 268q-30 76 -59 220q14 -138 14 -228v-240q0 -15 -14 -17.5t-98 -2.5v680q0 20 20 20h89l104 -263q28 -72 58 -207q-13 108 -13 217z" />
    <glyph glyph-name="O" unicode="O" horiz-adv-x="409" 
d="M20 354q0 198 45.5 276.5t145.5 78.5t139 -74t39 -277q0 -206 -44 -286.5t-145 -80.5q-69 0 -106 29t-55.5 107.5t-18.5 226.5zM148 329q0 -126 11 -174t47 -48t48 54.5t12 192.5q0 141 -10.5 190.5t-48.5 49.5q-34 0 -46.5 -58t-12.5 -207z" />
    <glyph glyph-name="P" unicode="P" horiz-adv-x="349" 
d="M50 700h94q101 0 148 -44.5t47 -161.5q0 -65 -16 -111t-44.5 -69.5t-60 -33.5t-69.5 -10h-7v-250q0 -15 -14 -17.5t-98 -2.5v680q0 11 4 15.5t16 4.5zM142 373h20q26 0 38.5 28t12.5 107q0 95 -44 95h-27v-230z" />
    <glyph glyph-name="Q" unicode="Q" horiz-adv-x="409" 
d="M403 -33q15 -24 15 -59q0 -20 -19.5 -32t-39 -15t-39.5 -3q-59 0 -95 32t-56 102q-83 9 -116 85.5t-33 276.5q0 198 45.5 276.5t145.5 78.5t139 -74t39 -277q0 -147 -22 -228.5t-70 -113.5q5 -35 15 -50.5t31 -15.5q33 0 60 17zM207 594q-34 0 -46.5 -58t-12.5 -207
q0 -126 11 -174t47 -48t48 54.5t12 192.5q0 141 -10.5 190.5t-48.5 49.5z" />
    <glyph glyph-name="R" unicode="R" horiz-adv-x="365" 
d="M122 700h22q101 0 148 -44.5t47 -161.5q0 -133 -70 -188q80 -104 86 -284q0 -15 -9.5 -20t-48.5 -5q-29 0 -66 3q-4 182 -65 271q-5 -1 -17 -1h-7v-250q0 -15 -14.5 -17.5t-97.5 -2.5v680q0 20 20 20h72zM169 603h-27v-230h20q26 0 38.5 27t12.5 100q0 103 -44 103z" />
    <glyph glyph-name="S" unicode="S" horiz-adv-x="344" 
d="M162 288l-91 122q-56 74 -56 147q0 70 46 111.5t132 41.5q136 0 136 -56q0 -34 -26 -63q-9 7 -35 13.5t-52 6.5q-79 0 -79 -51q0 -39 36 -89l96 -123q35 -45 47.5 -81.5t12.5 -81.5q0 -195 -182 -195q-64 0 -97.5 19.5t-33.5 47.5q0 43 25 81q36 -33 93 -33q73 0 73 77
q0 47 -45 106z" />
    <glyph glyph-name="T" unicode="T" horiz-adv-x="380" 
d="M30 700h340v-84q0 -12 -4.5 -16t-15.5 -4h-106v-576q0 -15 -14.5 -17.5t-97.5 -2.5v596h-122v84q0 20 20 20z" />
    <glyph glyph-name="U" unicode="U" horiz-adv-x="411" 
d="M146 700v-512q0 -52 13 -73.5t50 -21.5q36 0 58 12v574q0 16 14.5 18.5t99.5 2.5v-672q-22 -14 -68 -26t-104 -12q-57 0 -94 15t-54.5 45t-24 62.5t-6.5 79.5v487q0 16 14.5 18.5t101.5 2.5z" />
    <glyph glyph-name="V" unicode="V" horiz-adv-x="420" 
d="M415 700l-132 -700q-51 -6 -98 -6q-50 0 -63 59q-16 71 -44.5 225.5t-49.5 273.5l-21 119q-3 18 0.5 23.5t24.5 5.5h94l50 -326q14 -93 37 -282q15 160 33 282l43 296q2 17 7.5 23.5t19.5 6.5h99z" />
    <glyph glyph-name="W" unicode="W" horiz-adv-x="668" 
d="M566 700h97l-119 -700q-54 -6 -98 -6q-47 0 -60 63l-22 108q-15 75 -33 259q-19 -185 -31 -259l-27 -165q-49 -5 -107 -5q-42 0 -54 62q-15 72 -41 225.5t-45 271.5l-19 117q-3 17 1.5 23t23.5 6h94l49 -326q20 -135 28 -260h8q3 123 25 260l43 266q2 17 7 23.5t20 6.5
h79l51 -296q17 -97 29 -260h8q5 129 24 260l42 296q2 17 7.5 23.5t19.5 6.5z" />
    <glyph glyph-name="X" unicode="X" horiz-adv-x="421" 
d="M286 373l123 -357q8 -16 -11 -16h-124l-38 116q-16 50 -34 119q-17 -65 -37 -119l-38 -102q-8 -14 -23 -14h-97l135 359l-108 322q-4 13 9 16q17 3 125 3l29 -105q18 -64 27 -114q16 74 28 114l26 87q4 14 19 16t100 2z" />
    <glyph glyph-name="Y" unicode="Y" horiz-adv-x="368" 
d="M243 294v-274v-1q0 -14 -14 -16.5t-98 -2.5v287l-125 396q-3 11 7 14q13 3 121 3l29 -131q18 -78 28 -192q8 94 29 193l24 110q4 15 19 17.5t101 2.5z" />
    <glyph glyph-name="Z" unicode="Z" horiz-adv-x="376" 
d="M25 596v83q0 21 21 21h300q10 -17 10 -35q0 -23 -10 -48l-211 -518h155q43 0 67 10v-89q0 -20 -20 -20h-309q-15 17 -15 43q0 24 9 47l206 511h-156q-30 0 -47 -5z" />
    <glyph glyph-name="bracketleft" unicode="[" horiz-adv-x="350" 
d="M173 821h169q0 -71 -4.5 -88t-27.5 -17h-109v-811h141q0 -77 -4.5 -91t-27.5 -14h-223v989q0 10 1 14t4.5 8.5t13.5 6t25 2.5t42 1z" />
    <glyph glyph-name="backslash" unicode="\" horiz-adv-x="360" 
d="M123 765l225 -769q5 -17 -6 -21q-14 -5 -106 -5l-224 766q-6 19 7 23q15 6 104 6z" />
    <glyph glyph-name="bracketright" unicode="]" horiz-adv-x="350" 
d="M177 -200h-169q0 71 4.5 88t27.5 17h109v812h-141q0 77 4.5 91t27.5 14h223v-990q0 -22 -12 -27t-74 -5z" />
    <glyph glyph-name="asciicircum" unicode="^" horiz-adv-x="430" 
d="M210 267l-93 -55q-19 -10 -29 -10q-23 0 -36.5 17.5t-14.5 39.5l186 153l150 -126q19 -15 19 -35q0 -19 -15 -34t-38 -18z" />
    <glyph glyph-name="underscore" unicode="_" horiz-adv-x="370" 
d="M340 -127h-330q0 57 3 76.5t17 19.5h330q0 -57 -3 -76.5t-17 -19.5z" />
    <glyph glyph-name="grave" unicode="`" horiz-adv-x="182" 
d="M139 556q-9 0 -65 38.5t-74 58.5q5 31 19.5 56.5t31.5 25.5q10 0 58.5 -42.5t72.5 -75.5q-2 -7 -5 -17t-14 -27t-24 -17z" />
    <glyph glyph-name="a" unicode="a" horiz-adv-x="338" 
d="M311 388v-47q0 -245 -5 -319q-54 -32 -144 -32q-32 0 -54 5t-44 20.5t-33 48t-11 82.5q0 94 31.5 129.5t83.5 35.5q41 0 64 -15v69q0 20 -9.5 28.5t-32.5 8.5q-62 0 -120 -21q-15 29 -15 65q0 24 14 35q13 10 54 19.5t95 9.5q69 0 97.5 -27.5t28.5 -94.5zM199 221
q-9 8 -26 8q-18 0 -26.5 -17.5t-8.5 -62.5q0 -37 7 -52t25 -15t27 10q2 22 2 129z" />
    <glyph glyph-name="b" unicode="b" horiz-adv-x="365" 
d="M35 20v665q0 36 18.5 43t93.5 7v-254q34 29 85 29q60 0 86.5 -46t26.5 -157q0 -82 -12.5 -142t-30.5 -93t-45.5 -52t-51 -24.5t-53.5 -5.5q-80 0 -117 30zM147 396v-300q8 -8 22 -8q49 0 49 199q0 123 -38 123q-19 0 -33 -14z" />
    <glyph glyph-name="c" unicode="c" horiz-adv-x="291" 
d="M281 459q0 -30 -10 -60q-30 13 -63 13q-21 0 -35 -10t-25 -50t-11 -111q0 -87 14 -119.5t53 -32.5q36 0 64 14q9 -37 9 -59q0 -25 -30.5 -39.5t-78.5 -14.5q-82 0 -115 50t-33 199q0 69 11 120t27.5 79.5t41.5 45t47.5 21.5t50.5 5q37 0 60 -13.5t23 -37.5z" />
    <glyph glyph-name="d" unicode="d" horiz-adv-x="358" 
d="M216 492v194q0 35 19 42t93 7v-715q-68 -30 -146 -30q-29 0 -50 4t-43.5 18.5t-36.5 39.5t-23 69t-9 106q0 146 37 214.5t100 68.5q37 0 59 -18zM216 99v310q-8 5 -21 5t-22 -7.5t-18 -48.5t-9 -117q0 -87 8.5 -119.5t28.5 -32.5t33 10z" />
    <glyph glyph-name="e" unicode="e" horiz-adv-x="344" 
d="M202 99q48 0 106 28q9 -30 9 -75q0 -29 -40.5 -45.5t-101.5 -16.5q-36 0 -63 10.5t-48.5 36t-32.5 73t-11 116.5q0 87 13.5 146t40 87.5t55 39.5t67.5 11q128 0 128 -163q0 -87 -14 -142q-57 -12 -173 -14q2 -50 16 -71t49 -21zM181 413q-41 0 -44 -135q54 0 73 9
q5 15 5 52q0 46 -7 60t-27 14z" />
    <glyph glyph-name="f" unicode="f" horiz-adv-x="262" 
d="M70 407h-60q0 67 3.5 80t23.5 13h33v57q0 55 15 93t42 56t54.5 25t62.5 7q100 0 100 -52q0 -31 -11 -61q-27 13 -68 13t-62 -15t-21 -54v-69h72q0 -65 -3.5 -79t-17.5 -14h-51v-387q0 -20 -20 -20h-92v407z" />
    <glyph glyph-name="g" unicode="g" horiz-adv-x="382" 
d="M245 501h120q12 -24 12 -55q0 -41 -35 -41q-9 0 -21 3q24 -35 24 -91q0 -83 -38.5 -123t-123.5 -40q-18 0 -26 1q-13 -17 -13 -28q0 -7 9 -10t36 -6t41 -5q67 -11 99.5 -39t32.5 -85q0 -79 -47 -128.5t-143 -49.5q-162 0 -162 112q0 66 67 113q-54 17 -53 57q1 43 62 93
q-59 41 -59 145q0 102 42.5 144t126.5 42q24 0 49 -9zM188 237q24 0 34 22.5t10 87.5q0 47 -9 65.5t-32 18.5q-45 0 -45 -102q0 -53 9 -72.5t33 -19.5zM248 -34q0 25 -14.5 35.5t-69.5 16.5q-38 -31 -38 -73q0 -20 13 -29.5t45 -9.5q33 0 48.5 19t15.5 41z" />
    <glyph glyph-name="h" unicode="h" horiz-adv-x="361" 
d="M33 0v686q0 35 19 42t93 7v-260q35 35 95 35q55 0 73.5 -30t18.5 -99v-361q0 -15 -16 -17.5t-100 -2.5v346q0 19 -1.5 30t-9 21t-21.5 10q-20 0 -39 -12v-375q0 -15 -14 -17.5t-98 -2.5z" />
    <glyph glyph-name="i" unicode="i" horiz-adv-x="180" 
d="M38 646q0 78 61 78q30 0 41.5 -16t11.5 -57q0 -86 -60 -86q-27 0 -40.5 18t-13.5 63zM147 500v-480q0 -15 -14.5 -17.5t-99.5 -2.5v451q0 35 19.5 42t94.5 7z" />
    <glyph glyph-name="j" unicode="j" horiz-adv-x="187" 
d="M43 646q0 78 61 78q30 0 41.5 -16t11.5 -57q0 -86 -60 -86q-27 0 -40.5 18t-13.5 63zM153 500v-536q0 -161 -139 -161q-57 0 -80.5 14.5t-23.5 45.5q0 36 15 55q30 -13 72 -13q27 0 35.5 15t8.5 59v472q0 35 19.5 42t92.5 7z" />
    <glyph glyph-name="k" unicode="k" horiz-adv-x="361" 
d="M33 0v686q0 35 19.5 42t93.5 7v-253q50 28 106 28q83 0 83 -85q0 -90 -58 -151q70 -51 72 -189q0 -34 -3 -68q-1 -13 -17.5 -15t-110.5 -2q5 57 5 101q0 63 -11 94t-39 26q-7 -1 -14 -4.5t-10 -6.5l-3 -3v-187q0 -14 -9 -16q-12 -4 -104 -4zM146 382v-100q63 35 63 101
q0 27 -20 27q-23 0 -43 -28z" />
    <glyph glyph-name="l" unicode="l" horiz-adv-x="178" 
d="M145 735v-715q0 -15 -14 -17.5t-98 -2.5v686q0 35 19.5 42t92.5 7z" />
    <glyph glyph-name="m" unicode="m" horiz-adv-x="530" 
d="M33 0v477q70 33 154 33q54 0 83 -26q57 26 118 26q71 0 92 -31.5t21 -104.5v-354q0 -15 -15 -17.5t-97 -2.5v371q0 24 -6 32.5t-23 8.5q-20 0 -37 -9v-383v-1q0 -14 -13.5 -16.5t-95.5 -2.5h-1h-2v375q0 25 -5.5 32t-22.5 7q-19 0 -38 -12v-382q0 -15 -14.5 -17.5
t-97.5 -2.5z" />
    <glyph glyph-name="n" unicode="n" horiz-adv-x="361" 
d="M33 0v477q25 12 72 22.5t83 10.5q78 0 111 -28t33 -101v-361q0 -15 -15 -17.5t-101 -2.5v346q0 40 -6.5 54t-26.5 14q-21 0 -38 -12v-382q0 -15 -14.5 -17.5t-97.5 -2.5z" />
    <glyph glyph-name="o" unicode="o" horiz-adv-x="362" 
d="M20 251q0 259 166 259q84 0 120 -54.5t36 -200.5q0 -141 -40.5 -203t-123.5 -62q-59 0 -90.5 18t-49.5 75.5t-18 167.5zM143 252q0 -75 4.5 -113t12 -47t21.5 -9q11 0 18.5 9t13.5 48.5t6 111.5q0 104 -7 133t-30 29q-13 0 -20.5 -10t-13 -47t-5.5 -105z" />
    <glyph glyph-name="p" unicode="p" horiz-adv-x="362" 
d="M33 -148v619q63 39 148 39q79 0 120 -44t41 -159q0 -97 -10 -162t-29 -97.5t-40.5 -45t-51.5 -12.5q-43 0 -66 19v-197q-25 -9 -58 -9q-30 0 -42 10t-12 39zM145 402v-295q12 -18 28 -18q7 0 12.5 3.5t11.5 16t10 34.5t6.5 62t2.5 95q0 69 -9 91.5t-32 22.5
q-16 0 -30 -12z" />
    <glyph glyph-name="q" unicode="q" horiz-adv-x="363" 
d="M333 480v-629q0 -32 -12 -40t-54 -9q-18 0 -48 4v218q-21 -34 -75 -34q-57 0 -90.5 48t-33.5 177q0 295 208 295q60 0 105 -30zM219 122v282q-9 10 -22 10q-16 0 -26 -15.5t-16.5 -59.5t-6.5 -119q0 -77 9 -105t29 -28q24 0 33 35z" />
    <glyph glyph-name="r" unicode="r" horiz-adv-x="249" 
d="M33 0v465q66 45 139 45q39 0 53 -11.5t14 -38.5q0 -34 -11 -65q-16 8 -37 8q-24 0 -44 -16v-367q0 -15 -14.5 -17.5t-99.5 -2.5z" />
    <glyph glyph-name="s" unicode="s" horiz-adv-x="318" 
d="M153 188l-87 92q-48 51 -48 106q0 124 165 124q123 0 123 -63q0 -29 -22 -54q-38 21 -86 21q-47 0 -47 -30q0 -20 29 -50l74 -75q29 -34 39.5 -60.5t10.5 -64.5q0 -67 -45.5 -105.5t-122.5 -38.5q-117 0 -117 59q0 30 18 63q41 -22 87 -22q51 0 51 42q0 31 -22 56z" />
    <glyph glyph-name="t" unicode="t" horiz-adv-x="284" 
d="M69 131v274h-60q0 65 3.5 80t19.5 15h37v145q0 25 19.5 30t92.5 5v-180h82q0 -66 -3 -80.5t-19 -14.5h-60v-272q0 -16 1 -24t6.5 -16t16.5 -8q25 0 52 13q7 -33 7 -54q0 -54 -91 -54q-62 0 -83 34t-21 107z" />
    <glyph glyph-name="u" unicode="u" horiz-adv-x="358" 
d="M328 500v-472q-64 -38 -148 -38q-85 0 -118 37t-33 113v340q0 14 9 16q12 4 107 4v-367q0 -25 6.5 -36t26.5 -11q24 0 38 13v381v1q0 14 14 16.5t98 2.5z" />
    <glyph glyph-name="v" unicode="v" horiz-adv-x="330" 
d="M95 45l-85 422q-5 25 10.5 29t111.5 4l18 -144q5 -38 10 -98t8 -100l2 -41h2q9 153 19 239l14 122q2 17 17 19.5t101 2.5l-100 -500q-29 -5 -81 -5q-36 0 -47 50z" />
    <glyph glyph-name="w" unicode="w" horiz-adv-x="526" 
d="M398 360l15 118q2 16 16.5 19t91.5 3q-93 -500 -100 -500q-21 -5 -73 -5q-20 0 -36.5 12t-20.5 38l-10 66q-7 49 -13 154q-6 -107 -14 -154l-18 -111q-57 -5 -97 -5q-35 0 -46 49l-87 435q-2 15 16 18t108 3l19 -140q6 -43 11 -102.5t8 -97.5l2 -38h8q9 131 11 145
l27 201q2 15 8 18.5t28 3.5h74l34 -223q3 -19 6 -55.5t4 -63.5l2 -26h8q6 151 18 238z" />
    <glyph glyph-name="x" unicode="x" horiz-adv-x="379" 
d="M259 267l108 -243q7 -16 -1 -20q-11 -4 -124 -4l-20 48q-19 44 -42 116q-21 -66 -39 -116l-10 -27q-6 -15 -25 -18t-99 -3l117 259l-102 223q-5 12 3 15q12 3 115 3l22 -55q17 -43 35 -105q30 91 36 105l14 36q6 14 21.5 16.5t100.5 2.5z" />
    <glyph glyph-name="y" unicode="y" horiz-adv-x="340" 
d="M121 -16l-109 487q-5 22 8.5 25.5t101.5 3.5l29 -173q7 -39 13 -89.5t9 -81.5l3 -31q9 114 21 202l19 142q3 23 18.5 27t100.5 4l-112 -523q-21 -98 -51 -134t-91 -36q-92 0 -92 50q0 38 14 61q23 -17 68 -17q41 0 50 83z" />
    <glyph glyph-name="z" unicode="z" horiz-adv-x="300" 
d="M49 500h230q11 -11 11 -33t-13 -53l-136 -311h55q54 0 88 14q4 -16 4 -48q-1 -37 -10 -53t-35 -16h-214q-19 16 -19 55q0 21 9 40l146 312h-81q-38 0 -66 -5q-4 23 -4 51q0 25 8 36t27 11z" />
    <glyph glyph-name="braceleft" unicode="{" horiz-adv-x="266" 
d="M228 744q22 -31 22 -70q0 -33 -17 -38q-45 -7 -45 -73q0 -22 4 -79.5t4 -89.5q0 -44 -11.5 -64t-35.5 -31q24 -11 35.5 -32t11.5 -64q0 -31 -4 -85t-4 -76q0 -43 12.5 -63t41.5 -25q3 -27 3 -42q0 -28 -10 -44.5t-28 -16.5q-134 0 -134 136q0 34 7 91.5t7 91.5
q0 38 -11 54.5t-39 21.5q-9 19 -9 44q0 37 20 52q14 10 20.5 16.5t12.5 25t6 48.5q0 35 -7 101.5t-7 90.5q0 59 42 89t113 31z" />
    <glyph glyph-name="bar" unicode="|" horiz-adv-x="288" 
d="M201 815v-989q0 -20 -14.5 -23t-99.5 -3v986q0 21 15 25t99 4z" />
    <glyph glyph-name="braceright" unicode="}" horiz-adv-x="266" 
d="M38 -149q-21 30 -21 70q0 33 17 37q45 7 45 73q0 22 -4 79.5t-4 89.5q0 44 11 64.5t35 31.5q-23 11 -34.5 32t-11.5 64q0 31 4 84.5t4 76.5q0 42 -12.5 62t-41.5 26q-4 23 -4 42q0 27 10.5 44t28.5 17q133 0 133 -136q0 -33 -7 -91.5t-7 -92.5q0 -38 11 -54.5t39 -21.5
q10 -21 10 -43q0 -36 -21 -52q-14 -11 -20 -17.5t-12.5 -25t-6.5 -48.5q0 -35 7 -101.5t7 -90.5q0 -58 -42.5 -88.5t-112.5 -30.5z" />
    <glyph glyph-name="asciitilde" unicode="~" 
d="M9 273q16 24 56 43.5t83 19.5q37 0 66.5 -18t52.5 -18q27 0 61 28q25 15 44.5 -6t20.5 -59q-17 -24 -54.5 -44t-81.5 -20q-37 0 -68 18.5t-51 18.5q-19 0 -46 -17.5t-41 -16.5q-18 2 -29.5 21t-12.5 50z" />
    <glyph glyph-name="uni00A0" unicode="&#xa0;" horiz-adv-x="140" 
 />
    <glyph glyph-name="exclamdown" unicode="&#xa1;" horiz-adv-x="202" 
d="M179 436q0 -31 -19 -52t-52 -21q-71 0 -71 73q0 30 19 50.5t52 20.5q39 0 55 -17.5t16 -53.5zM163 264l21 -428q1 -23 -25.5 -28t-132.5 -5l25 409q2 36 22 44t90 8z" />
    <glyph glyph-name="cent" unicode="&#xa2;" 
d="M291 611v-107q42 -12 42 -31q0 -51 -10 -79q-30 13 -63 13q-16 0 -27.5 -5t-23.5 -20.5t-18.5 -51.5t-6.5 -91q0 -67 7 -98.5t20 -39.5t41 -8q40 0 68 14q9 -30 9 -69q0 -15 -19 -28t-46 -18v-76q0 -25 -23.5 -33t-78.5 -8v122q-46 13 -67.5 64.5t-21.5 170.5
q0 227 116 268v66q0 26 24.5 35.5t77.5 9.5z" />
    <glyph glyph-name="sterling" unicode="&#xa3;" horiz-adv-x="346" 
d="M184 110l125 -8q8 -25 8 -51q0 -51 -47 -51h-192q-11 108 -13 275h-50q0 57 3 76.5t17 19.5h32q14 224 161 224q100 0 100 -61q0 -28 -13 -66q-28 14 -58 14q-34 0 -54 -24.5t-25 -86.5h109q0 -57 -3 -76.5t-17 -19.5h-90q2 -110 7 -165z" />
    <glyph glyph-name="yen" unicode="&#xa5;" 
d="M258 294v-30h124q0 -53 -7.5 -72.5t-33.5 -19.5h-83v-152v-1q0 -14 -14 -16.5t-98 -2.5v172h-123q0 53 7.5 72.5t33.5 19.5h82v23l-17 55h-106q0 53 7.5 72.5t33.5 19.5h36l-79 249q-3 11 7 14q13 3 121 3l28 -131q21 -94 26 -162q7 79 28 163l28 110q5 15 20 17.5
t100 2.5l-79 -266h82q0 -53 -7.5 -72.5t-33.5 -19.5h-69z" />
    <glyph glyph-name="brokenbar" unicode="&#xa6;" horiz-adv-x="229" 
d="M170 736v-375q0 -25 -10.5 -32.5t-47.5 -7.5q-28 0 -54 6v372q0 26 12.5 35.5t46.5 9.5q27 0 53 -8zM170 219v-377q0 -25 -10.5 -32.5t-47.5 -7.5q-34 0 -54 6v374q0 26 12.5 35.5t46.5 9.5q27 0 53 -8z" />
    <glyph glyph-name="section" unicode="&#xa7;" horiz-adv-x="325" 
d="M251 221q1 -2 4 -6t4 -6q30 -46 30 -87q0 -59 -45.5 -92.5t-111.5 -33.5q-84 0 -102 44q-4 7 -4 22q0 37 19 69q27 -15 64 -15q50 0 50 31q0 17 -24 47q-5 6 -24 27t-35 40.5t-27 36.5q-27 40 -27 83q0 59 49 98q-7 10 -8 11q-30 44 -30 87q0 59 45 92.5t112 33.5
q82 0 102 -43q4 -11 4 -23q0 -34 -19 -69q-27 15 -65 15q-50 0 -50 -31q0 -16 24 -47q5 -6 24 -27t35 -40.5t27 -36.5q27 -38 27 -83q0 -57 -48 -97zM149 316q6 -10 20 -22q11 5 19 16t8 19q0 19 -23 54q-6 10 -20 22q-12 -4 -19.5 -14.5t-7.5 -19.5q0 -23 23 -55z" />
    <glyph glyph-name="dieresis" unicode="&#xa8;" horiz-adv-x="266" 
d="M0 627q0 26 16.5 44t44.5 18q61 0 61 -62q0 -26 -16.5 -43.5t-44.5 -17.5q-34 0 -47.5 15t-13.5 46zM145 627q0 26 16.5 44t43.5 18q61 0 61 -62q0 -26 -16.5 -43.5t-44.5 -17.5q-34 0 -47 15t-13 46z" />
    <glyph glyph-name="copyright" unicode="&#xa9;" horiz-adv-x="480" 
d="M32 542q0 217 214 217q106 0 154 -49.5t48 -164.5q0 -108 -54 -167t-158 -59t-154 55t-50 168zM114 545q0 -80 31 -114t93 -34q55 0 91 34.5t36 113.5q0 142 -121 142q-130 0 -130 -142zM297 645q0 -20 -5 -38q-22 5 -33 5t-18 -4t-13 -22.5t-6 -53.5q0 -38 6.5 -47.5
t26.5 -9.5q7 0 34 6q6 -13 6 -36q0 -9 -14.5 -14.5t-31.5 -5.5q-49 0 -67.5 20.5t-18.5 88.5q0 128 91 128q14 0 28.5 -5.5t14.5 -11.5z" />
    <glyph glyph-name="ordfeminine" unicode="&#xaa;" horiz-adv-x="308" 
d="M186 530v33q0 29 -13 39.5t-37 10.5q-38 0 -87 -19q-11 14 -12.5 39.5t7.5 38.5q27 38 125 38q52 0 80.5 -27.5t28.5 -80.5v-285q-62 -29 -135 -29q-55 0 -84 24.5t-29 100.5q0 126 100 126q29 0 56 -9zM186 373v83q-11 6 -26 6q-21 0 -31.5 -10t-10.5 -40q0 -47 38 -47
q18 0 30 8z" />
    <glyph glyph-name="guillemotleft" unicode="&#xab;" horiz-adv-x="414" 
d="M6 250q0 20 35.5 82.5t70.5 115.5l36 52q19 0 35.5 -14t23.5 -28l7 -15q0 -23 -26 -71t-52 -85l-26 -37q12 -15 29.5 -38.5t46.5 -74t29 -74.5q-3 -7 -8 -17.5t-22.5 -28t-36.5 -17.5q-142 204 -142 250zM190 251q0 19 35 75t69 103l35 47q18 0 34 -13t23 -27l7 -13
q0 -21 -24.5 -64t-48.5 -75l-25 -33q11 -13 27.5 -33.5t44 -65t27.5 -66.5q-3 -7 -8 -16.5t-22 -26t-35 -16.5q-139 181 -139 224z" />
    <glyph glyph-name="logicalnot" unicode="&#xac;" 
d="M68 322h292v-211q-24 -9 -51 -9q-54 0 -54 34v81h-212q-9 25 -9 52q0 53 34 53z" />
    <glyph glyph-name="registered" unicode="&#xae;" horiz-adv-x="480" 
d="M246 759q106 0 154 -49.5t48 -164.5q0 -108 -54 -167t-158 -59t-154 55t-50 168q0 217 214 217zM238 397q55 0 91 34.5t36 113.5q0 142 -121 142q-130 0 -130 -142q0 -80 31 -114t93 -34zM219 663h8q79 0 79 -73q0 -40 -25 -62q30 -27 32 -96q0 -6 -3.5 -8.5t-17.5 -2.5
q-9 0 -29 2q-1 64 -21 88q-4 -1 -12 -1h-3v-79q0 -6 -5.5 -7t-39.5 -1v234q0 6 8 6h29zM227 624v-71q3 -1 8 -1q21 0 21 43q0 29 -19 29h-10z" />
    <glyph glyph-name="macron" unicode="&#xaf;" horiz-adv-x="281" 
d="M239 567h-231q-8 22 -8 50q0 25 11.5 40t32.5 15h226q11 -22 11 -47t-11.5 -41.5t-30.5 -16.5z" />
    <glyph glyph-name="degree" unicode="&#xb0;" horiz-adv-x="343" 
d="M67 645q0 105 108 105q54 0 77.5 -22.5t23.5 -80.5q0 -106 -107 -106q-53 0 -77.5 22.5t-24.5 81.5zM139 645q0 -37 32 -37q35 0 35 38q0 36 -31 36q-36 0 -36 -37z" />
    <glyph glyph-name="plusminus" unicode="&#xb1;" horiz-adv-x="402" 
d="M250 396h127q0 -57 -3 -76.5t-17 -19.5h-107v-107q0 -14 -19.5 -17t-76.5 -3v127h-127q0 57 3 76.5t17 19.5h107v107q0 14 19.5 17t76.5 3v-127zM355 17h-330q0 57 3 76.5t17 19.5h330q0 -57 -3 -76.5t-17 -19.5z" />
    <glyph glyph-name="twosuperior" unicode="&#xb2;" horiz-adv-x="363" 
d="M301 289h-266q-8 17 -8 34q0 36 15 54q26 33 66.5 74t59.5 65t19 45q0 35 -47 35q-36 0 -87 -30q-18 40 -18 67q0 35 52 56t110 21q71 0 100 -26t29 -78q0 -31 -15.5 -64.5t-30.5 -53t-45.5 -53t-36.5 -41.5h132q6 -30 6 -48q0 -57 -35 -57z" />
    <glyph glyph-name="threesuperior" unicode="&#xb3;" horiz-adv-x="348" 
d="M263 517q60 -30 60 -89q0 -75 -50 -112t-127 -37q-71 0 -103 22q-18 12 -18 42q0 37 25 60q42 -22 87 -22q70 0 70 39q0 32 -44 36q-14 2 -58 2q-3 4 -8 23t-5 28q0 32 33 32q25 0 37 -1q23 18 23 40q0 31 -46 31t-87 -26q-19 21 -21.5 49t11.5 41q40 35 149 35
q120 0 120 -89q0 -56 -48 -104z" />
    <glyph glyph-name="acute" unicode="&#xb4;" horiz-adv-x="182" 
d="M43 559q-13 0 -23.5 15.5t-15.5 30.5l-4 15q24 33 72.5 75.5t58.5 42.5q17 0 31.5 -25.5t19.5 -56.5q-18 -20 -74 -58.5t-65 -38.5z" />
    <glyph glyph-name="paragraph" unicode="&#xb6;" horiz-adv-x="534" 
d="M345 681v-644q0 -40 -54 -40q-36 0 -58 8v197q-23 -11 -68 -11q-143 0 -143 226q0 293 197 293q74 0 126 -29zM505 682v-646q0 -25 -11 -32.5t-48 -7.5q-34 0 -54 6v644q0 25 12.5 35t46.5 10q23 0 54 -9zM232 288v321q-12 7 -30 7q-64 0 -64 -186q0 -151 57 -151
q24 0 37 9z" />
    <glyph glyph-name="periodcentered" unicode="&#xb7;" horiz-adv-x="235" 
d="M47 268q0 31 19 52t52 21q71 0 71 -73q0 -30 -19 -50.5t-52 -20.5q-39 0 -55 17.5t-16 53.5z" />
    <glyph glyph-name="cedilla" unicode="&#xb8;" horiz-adv-x="150" 
d="M94 2l-11 -59h16q21 0 36 -18t15 -53q0 -39 -24.5 -66.5t-65.5 -27.5q-15 0 -30 4t-22 8l-8 4q9 44 16 51q3 3 9.5 0t16.5 -8t20 -5q28 0 28 32t-26 32q-14 0 -25 -1.5t-15 -2.5l-5 -2l19 112h56z" />
    <glyph glyph-name="onesuperior" unicode="&#xb9;" horiz-adv-x="351" 
d="M132 587l-90 -16q-14 22 -14 53q0 36 35 51q34 13 81 24t70 11q22 0 32 -4v-312h75q5 -30 5 -49q0 -32 -7 -44t-26 -12h-262q-6 25 -6 48q0 29 8 43t29 14h70v193z" />
    <glyph glyph-name="ordmasculine" unicode="&#xba;" horiz-adv-x="326" 
d="M27 499q0 211 141 211q70 0 100.5 -44.5t30.5 -163.5q0 -213 -140 -213q-68 0 -100 46t-32 164zM120 495q0 -68 9.5 -92t30.5 -24q23 0 34.5 26t11.5 92q0 68 -8.5 91.5t-30.5 23.5q-24 0 -35.5 -26t-11.5 -91z" />
    <glyph glyph-name="guillemotright" unicode="&#xbb;" horiz-adv-x="414" 
d="M408 250q0 -20 -35.5 -82.5t-70.5 -115.5l-36 -52q-8 2 -19 6t-29.5 20.5t-18.5 36.5q0 24 26.5 70.5t52.5 81.5l26 35q-12 16 -29 41t-46 77t-29 75q0 17 16.5 31.5t33.5 19.5l16 6q142 -206 142 -250zM222 250q0 -20 -35.5 -77t-70.5 -103l-36 -47q-7 2 -17 6
t-26.5 20.5t-16.5 36.5q0 24 24.5 65t49.5 70l24 29q3 0 -20.5 32t-50 75.5t-26.5 65.5q0 17 14.5 31.5t29.5 19.5l15 6q16 -21 39.5 -53t63 -94.5t39.5 -82.5z" />
    <glyph glyph-name="questiondown" unicode="&#xbf;" horiz-adv-x="312" 
d="M238 435q0 -31 -19 -52t-52 -21q-71 0 -71 73q0 30 19 50.5t52 20.5q39 0 55 -17.5t16 -53.5zM153 -196q-69 0 -104 38t-35 99q0 57 15.5 96.5t47 82t41.5 61.5q9 20 0.5 55.5t-2.5 43.5q9 10 43.5 13t57.5 -1q2 -3 4 -8.5t7 -21.5t7.5 -31.5t0 -36.5t-11.5 -39
q-16 -32 -41.5 -71t-36 -63t-10.5 -50q0 -27 14.5 -40.5t48.5 -13.5q20 0 37 5.5t24 10.5l7 5q18 -48 18 -90q0 -20 -42 -32t-90 -12z" />
    <glyph glyph-name="Agrave" unicode="&#xc0;" horiz-adv-x="437" 
d="M238 756q-9 0 -65 38.5t-74 58.5q5 31 19.5 56.5t31.5 25.5q10 0 58.5 -42.5t72.5 -75.5q-2 -7 -5 -17t-14 -27t-24 -17zM267 698l167 -680q2 -7 -1.5 -11t-15 -6.5t-33.5 -2.5q-36 0 -65 2l-33 159h-133l-29 -140q-2 -8 -4.5 -12t-13.5 -6.5t-33 -2.5q-36 0 -71 4
l167 679q4 21 45 21q34 0 53 -4zM174 260h91l-19 93q-15 71 -26 189q-14 -127 -27 -189z" />
    <glyph glyph-name="Aacute" unicode="&#xc1;" horiz-adv-x="437" 
d="M208 759q-13 0 -23.5 15.5t-14.5 30.5l-5 15q24 33 72.5 75.5t58.5 42.5q17 0 31.5 -25.5t19.5 -56.5q-18 -20 -74 -58.5t-65 -38.5zM267 698l167 -680q2 -7 -1.5 -11t-15 -6.5t-33.5 -2.5q-36 0 -65 2l-33 159h-133l-29 -140q-2 -8 -4.5 -12t-13.5 -6.5t-33 -2.5
q-36 0 -71 4l167 679q4 21 45 21q34 0 53 -4zM174 260h91l-19 93q-15 71 -26 189q-14 -127 -27 -189z" />
    <glyph glyph-name="Acircumflex" unicode="&#xc2;" horiz-adv-x="437" 
d="M87 790l114 134q11 3 22 3q18 0 31 -14q98 -100 98 -126q0 -27 -77 -27q-33 30 -53 68q-38 -67 -62 -67q-54 0 -73 29zM267 698l167 -680q2 -7 -1.5 -11t-15 -6.5t-33.5 -2.5q-36 0 -65 2l-33 159h-133l-29 -140q-2 -8 -4.5 -12t-13.5 -6.5t-33 -2.5q-36 0 -71 4l167 679
q4 21 45 21q34 0 53 -4zM174 260h91l-19 93q-15 71 -26 189q-14 -127 -27 -189z" />
    <glyph glyph-name="Atilde" unicode="&#xc3;" horiz-adv-x="437" 
d="M68 824q24 41 59.5 62t65.5 21q21 0 42.5 -21.5t39.5 -21.5q25 0 39 15.5t21 15.5q9 0 18 -15.5t13 -31.5l5 -15q-6 -8 -17 -20.5t-42 -33.5t-59 -21q-27 0 -44 21t-35 21t-33 -15.5t-21 -15.5q-13 0 -26 13.5t-20 27.5zM267 698l167 -680q2 -7 -1.5 -11t-15 -6.5
t-33.5 -2.5q-36 0 -65 2l-33 159h-133l-29 -140q-2 -8 -4.5 -12t-13.5 -6.5t-33 -2.5q-36 0 -71 4l167 679q4 21 45 21q34 0 53 -4zM174 260h91l-19 93q-15 71 -26 189q-14 -127 -27 -189z" />
    <glyph glyph-name="Adieresis" unicode="&#xc4;" horiz-adv-x="437" 
d="M90 827q0 26 16.5 44t44.5 18q61 0 61 -62q0 -26 -16.5 -43.5t-44.5 -17.5q-34 0 -47.5 15t-13.5 46zM235 827q0 26 16.5 44t43.5 18q61 0 61 -62q0 -26 -16.5 -43.5t-44.5 -17.5q-34 0 -47 15t-13 46zM267 698l167 -680q2 -7 -1.5 -11t-15 -6.5t-33.5 -2.5q-36 0 -65 2
l-33 159h-133l-29 -140q-2 -8 -4.5 -12t-13.5 -6.5t-33 -2.5q-36 0 -71 4l167 679q4 21 45 21q34 0 53 -4zM174 260h91l-19 93q-15 71 -26 189q-14 -127 -27 -189z" />
    <glyph glyph-name="Aring" unicode="&#xc5;" horiz-adv-x="437" 
d="M113 853q0 105 108 105q54 0 77.5 -22.5t23.5 -80.5q0 -106 -107 -106q-53 0 -77.5 22.5t-24.5 81.5zM190 853q0 -32 27 -32q30 0 30 33q0 31 -26 31q-31 0 -31 -32zM267 698l167 -680q2 -7 -1.5 -11t-15 -6.5t-33.5 -2.5q-36 0 -65 2l-33 159h-133l-29 -140
q-2 -8 -4.5 -12t-13.5 -6.5t-33 -2.5q-36 0 -71 4l167 679q4 21 45 21q34 0 53 -4zM174 260h91l-19 93q-15 71 -26 189q-14 -127 -27 -189z" />
    <glyph glyph-name="AE" unicode="&#xc6;" horiz-adv-x="582" 
d="M424 328v-228h141q0 -72 -2.5 -86t-17.5 -14h-233v159h-127l-47 -140q-4 -12 -14 -16.5t-37 -4.5q-36 0 -71 4l252 679q6 19 36 19h268q0 -70 -2.5 -85t-17.5 -15h-128v-170h121q0 -68 -2.5 -85t-16.5 -17h-102zM219 260h93v322q-30 -135 -63 -232z" />
    <glyph glyph-name="Ccedilla" unicode="&#xc7;" horiz-adv-x="325" 
d="M144 -110l16 96q-50 6 -79 36.5t-45 104t-16 200.5q0 388 200 388q58 0 76.5 -15.5t18.5 -43.5q0 -33 -16 -67q-23 17 -52 17q-109 0 -109 -270q0 -128 17.5 -177t60.5 -49q50 0 78 15q15 -32 15 -66q0 -62 -93 -73l-8 -43h16q21 0 36 -18t15 -53q0 -39 -24.5 -66.5
t-65.5 -27.5q-15 0 -30 4t-23 8l-7 4q9 44 16 51q3 3 9.5 0t16.5 -8t20 -5q28 0 28 32t-26 32q-14 0 -25 -1.5t-16 -2.5z" />
    <glyph glyph-name="Egrave" unicode="&#xc8;" horiz-adv-x="300" 
d="M188 756q-9 0 -65 38.5t-74 58.5q5 31 19.5 56.5t31.5 25.5q10 0 58.5 -42.5t72.5 -75.5q-2 -7 -5 -17t-14 -27t-24 -17zM142 328v-228h141q0 -72 -2.5 -86t-17.5 -14h-233v680q1 20 20 20h240q0 -70 -2.5 -85t-17.5 -15h-128v-170h121q0 -68 -2.5 -85t-16.5 -17h-102z
" />
    <glyph glyph-name="Eacute" unicode="&#xc9;" horiz-adv-x="300" 
d="M158 759q-13 0 -23.5 15.5t-14.5 30.5l-5 15q24 33 72.5 75.5t58.5 42.5q17 0 31.5 -25.5t19.5 -56.5q-18 -20 -74 -58.5t-65 -38.5zM142 328v-228h141q0 -72 -2.5 -86t-17.5 -14h-233v680q1 20 20 20h240q0 -70 -2.5 -85t-17.5 -15h-128v-170h121q0 -68 -2.5 -85
t-16.5 -17h-102z" />
    <glyph glyph-name="Ecircumflex" unicode="&#xca;" horiz-adv-x="300" 
d="M37 790l114 134q10 3 22 3q18 0 31 -14q98 -100 98 -126q0 -27 -77 -27q-33 30 -53 68q-38 -67 -62 -67q-54 0 -73 29zM142 328v-228h141q0 -72 -2.5 -86t-17.5 -14h-233v680q1 20 20 20h240q0 -70 -2.5 -85t-17.5 -15h-128v-170h121q0 -68 -2.5 -85t-16.5 -17h-102z" />
    <glyph glyph-name="Edieresis" unicode="&#xcb;" horiz-adv-x="300" 
d="M40 827q0 26 16.5 44t44.5 18q61 0 61 -62q0 -26 -16.5 -43.5t-44.5 -17.5q-34 0 -47.5 15t-13.5 46zM185 827q0 26 16.5 44t43.5 18q61 0 61 -62q0 -26 -16.5 -43.5t-44.5 -17.5q-34 0 -47 15t-13 46zM142 328v-228h141q0 -72 -2.5 -86t-17.5 -14h-233v680q1 20 20 20
h240q0 -70 -2.5 -85t-17.5 -15h-128v-170h121q0 -68 -2.5 -85t-16.5 -17h-102z" />
    <glyph glyph-name="Igrave" unicode="&#xcc;" horiz-adv-x="174" 
d="M107 756q-9 0 -65 38.5t-74 58.5q5 31 19.5 56.5t31.5 25.5q10 0 58.5 -42.5t72.5 -75.5q-2 -7 -5 -17t-14 -27t-24 -17zM30 0v651q0 37 15 43t99 6v-680q0 -15 -14.5 -17.5t-99.5 -2.5z" />
    <glyph glyph-name="Iacute" unicode="&#xcd;" horiz-adv-x="174" 
d="M77 759q-13 0 -23.5 15.5t-15.5 30.5l-4 15q24 33 72.5 75.5t58.5 42.5q17 0 31.5 -25.5t19.5 -56.5q-18 -20 -74 -58.5t-65 -38.5zM30 0v651q0 37 15 43t99 6v-680q0 -15 -14.5 -17.5t-99.5 -2.5z" />
    <glyph glyph-name="Icircumflex" unicode="&#xce;" horiz-adv-x="174" 
d="M-44 790l114 134q10 3 22 3q18 0 31 -14q98 -100 98 -126q0 -27 -77 -27q-33 30 -53 68q-38 -67 -62 -67q-54 0 -73 29zM30 0v651q0 37 15 43t99 6v-680q0 -15 -14.5 -17.5t-99.5 -2.5z" />
    <glyph glyph-name="Idieresis" unicode="&#xcf;" horiz-adv-x="174" 
d="M-41 827q0 26 16.5 44t44.5 18q61 0 61 -62q0 -26 -16.5 -43.5t-44.5 -17.5q-34 0 -47.5 15t-13.5 46zM104 827q0 26 16.5 44t43.5 18q61 0 61 -62q0 -26 -16.5 -43.5t-44.5 -17.5q-34 0 -47 15t-13 46zM30 0v651q0 37 15 43t99 6v-680q0 -15 -14.5 -17.5t-99.5 -2.5z
" />
    <glyph glyph-name="Eth" unicode="&#xd0;" horiz-adv-x="360" 
d="M58 700h96q70 0 111 -24t63 -91t22 -188q0 -210 -45 -303.5t-146 -93.5h-129v315h-34q0 57 3 76.5t17 19.5h14v269q0 20 28 20zM142 106h20q10 0 18 5.5t16 24t13 49.5t8.5 84.5t3.5 127.5q0 86 -8 131.5t-20 57.5t-32 12h-19v-187h50q0 -57 -3 -76.5t-17 -19.5h-30v-209
z" />
    <glyph glyph-name="Ntilde" unicode="&#xd1;" horiz-adv-x="430" 
d="M69 824q24 41 59.5 62t65.5 21q21 0 42.5 -21.5t39.5 -21.5q19 0 29.5 8t17 15.5t13.5 7.5q9 0 18 -15.5t14 -31.5l4 -15q-6 -8 -17 -20.5t-42 -33.5t-59 -21q-26 0 -44 21t-35 21t-33 -15.5t-21 -15.5q-13 0 -26 13.5t-19 27.5zM288 447v233q0 15 14.5 17.5t97.5 2.5
v-680q0 -20 -20 -20h-87l-106 268q-30 76 -59 220q14 -138 14 -228v-240q0 -15 -14 -17.5t-98 -2.5v680q0 20 20 20h89l104 -263q28 -72 58 -207q-13 108 -13 217z" />
    <glyph glyph-name="Ograve" unicode="&#xd2;" horiz-adv-x="409" 
d="M227 756q-9 0 -65 38.5t-74 58.5q5 31 19.5 56.5t31.5 25.5q10 0 58.5 -42.5t72.5 -75.5q-2 -7 -5 -17t-14 -27t-24 -17zM20 354q0 198 45.5 276.5t145.5 78.5t139 -74t39 -277q0 -206 -44 -286.5t-145 -80.5q-69 0 -106 29t-55.5 107.5t-18.5 226.5zM148 329
q0 -126 11 -174t47 -48t48 54.5t12 192.5q0 141 -10.5 190.5t-48.5 49.5q-34 0 -46.5 -58t-12.5 -207z" />
    <glyph glyph-name="Oacute" unicode="&#xd3;" horiz-adv-x="409" 
d="M197 759q-13 0 -23.5 15.5t-15.5 30.5l-4 15q24 33 72.5 75.5t58.5 42.5q17 0 31.5 -25.5t19.5 -56.5q-18 -20 -74 -58.5t-65 -38.5zM20 354q0 198 45.5 276.5t145.5 78.5t139 -74t39 -277q0 -206 -44 -286.5t-145 -80.5q-69 0 -106 29t-55.5 107.5t-18.5 226.5zM148 329
q0 -126 11 -174t47 -48t48 54.5t12 192.5q0 141 -10.5 190.5t-48.5 49.5q-34 0 -46.5 -58t-12.5 -207z" />
    <glyph glyph-name="Ocircumflex" unicode="&#xd4;" horiz-adv-x="409" 
d="M76 790l114 134q11 3 22 3q18 0 31 -14q98 -100 98 -126q0 -27 -77 -27q-33 30 -53 68q-38 -67 -62 -67q-54 0 -73 29zM20 354q0 198 45.5 276.5t145.5 78.5t139 -74t39 -277q0 -206 -44 -286.5t-145 -80.5q-69 0 -106 29t-55.5 107.5t-18.5 226.5zM148 329
q0 -126 11 -174t47 -48t48 54.5t12 192.5q0 141 -10.5 190.5t-48.5 49.5q-34 0 -46.5 -58t-12.5 -207z" />
    <glyph glyph-name="Otilde" unicode="&#xd5;" horiz-adv-x="409" 
d="M57 824q24 41 59.5 62t65.5 21q21 0 42.5 -21.5t39.5 -21.5q19 0 29.5 8t17 15.5t13.5 7.5q9 0 18 -15.5t14 -31.5l4 -15q-6 -8 -17 -20.5t-42 -33.5t-59 -21q-26 0 -44 21t-35 21t-33 -15.5t-21 -15.5q-13 0 -26 13.5t-19 27.5zM20 354q0 198 45.5 276.5t145.5 78.5
t139 -74t39 -277q0 -206 -44 -286.5t-145 -80.5q-69 0 -106 29t-55.5 107.5t-18.5 226.5zM148 329q0 -126 11 -174t47 -48t48 54.5t12 192.5q0 141 -10.5 190.5t-48.5 49.5q-34 0 -46.5 -58t-12.5 -207z" />
    <glyph glyph-name="Odieresis" unicode="&#xd6;" horiz-adv-x="409" 
d="M79 827q0 26 16.5 44t44.5 18q61 0 61 -62q0 -26 -16.5 -43.5t-44.5 -17.5q-34 0 -47.5 15t-13.5 46zM224 827q0 26 16.5 44t43.5 18q61 0 61 -62q0 -26 -16.5 -43.5t-44.5 -17.5q-34 0 -47 15t-13 46zM20 354q0 198 45.5 276.5t145.5 78.5t139 -74t39 -277
q0 -206 -44 -286.5t-145 -80.5q-69 0 -106 29t-55.5 107.5t-18.5 226.5zM148 329q0 -126 11 -174t47 -48t48 54.5t12 192.5q0 141 -10.5 190.5t-48.5 49.5q-34 0 -46.5 -58t-12.5 -207z" />
    <glyph glyph-name="multiply" unicode="&#xd7;" 
d="M348 372l-214 -234q-10 -10 -25 1.5t-57 52.5l214 234q10 10 25 -1.5t57 -52.5z" />
    <glyph glyph-name="Oslash" unicode="&#xd8;" horiz-adv-x="419" 
d="M428 686q2 -15 -44 -153q10 -67 10 -175q0 -206 -44 -287t-145 -81q-84 0 -122 45q-4 -10 -8.5 -21.5t-7.5 -19t-4 -9.5q-20 -1 -42 9t-25 24q-2 6 44 120q-15 79 -15 216q0 199 44 277.5t144 78.5q83 0 123 -48q16 42 23 57q64 -7 69 -33zM153 273l97 300q-13 22 -38 22
q-34 0 -46.5 -58.5t-12.5 -207.5v-56zM201 106q17 0 27.5 7t21.5 30t16 75.5t5 135.5v59q-17 -53 -98 -295q10 -12 28 -12z" />
    <glyph glyph-name="Ugrave" unicode="&#xd9;" horiz-adv-x="411" 
d="M223 756q-9 0 -65 38.5t-74 58.5q5 31 19.5 56.5t31.5 25.5q10 0 58.5 -42.5t72.5 -75.5q-2 -7 -5 -17t-14 -27t-24 -17zM146 700v-512q0 -52 13 -73.5t50 -21.5q36 0 58 12v574q0 16 14.5 18.5t99.5 2.5v-672q-22 -14 -68 -26t-104 -12q-57 0 -94 15t-54.5 45t-24 62.5
t-6.5 79.5v487q0 16 14.5 18.5t101.5 2.5z" />
    <glyph glyph-name="Uacute" unicode="&#xda;" horiz-adv-x="411" 
d="M193 759q-13 0 -23.5 15.5t-15.5 30.5l-4 15q24 33 72.5 75.5t58.5 42.5q17 0 31.5 -25.5t19.5 -56.5q-18 -20 -74 -58.5t-65 -38.5zM146 700v-512q0 -52 13 -73.5t50 -21.5q36 0 58 12v574q0 16 14.5 18.5t99.5 2.5v-672q-22 -14 -68 -26t-104 -12q-57 0 -94 15
t-54.5 45t-24 62.5t-6.5 79.5v487q0 16 14.5 18.5t101.5 2.5z" />
    <glyph glyph-name="Ucircumflex" unicode="&#xdb;" horiz-adv-x="411" 
d="M72 790l114 134q10 3 22 3q18 0 31 -14q98 -100 98 -126q0 -27 -77 -27q-33 30 -53 68q-38 -67 -62 -67q-54 0 -73 29zM146 700v-512q0 -52 13 -73.5t50 -21.5q36 0 58 12v574q0 16 14.5 18.5t99.5 2.5v-672q-22 -14 -68 -26t-104 -12q-57 0 -94 15t-54.5 45t-24 62.5
t-6.5 79.5v487q0 16 14.5 18.5t101.5 2.5z" />
    <glyph glyph-name="Udieresis" unicode="&#xdc;" horiz-adv-x="411" 
d="M75 827q0 26 16.5 44t44.5 18q61 0 61 -62q0 -26 -16.5 -43.5t-44.5 -17.5q-34 0 -47.5 15t-13.5 46zM220 827q0 26 16.5 44t43.5 18q61 0 61 -62q0 -26 -16.5 -43.5t-44.5 -17.5q-34 0 -47 15t-13 46zM146 700v-512q0 -52 13 -73.5t50 -21.5q36 0 58 12v574
q0 16 14.5 18.5t99.5 2.5v-672q-22 -14 -68 -26t-104 -12q-57 0 -94 15t-54.5 45t-24 62.5t-6.5 79.5v487q0 16 14.5 18.5t101.5 2.5z" />
    <glyph glyph-name="Yacute" unicode="&#xdd;" horiz-adv-x="368" 
d="M178 759q-13 0 -23.5 15.5t-14.5 30.5l-5 15q24 33 72.5 75.5t58.5 42.5q17 0 31.5 -25.5t19.5 -56.5q-18 -20 -74 -58.5t-65 -38.5zM243 294v-274v-1q0 -14 -14 -16.5t-98 -2.5v287l-125 396q-3 11 7 14q13 3 121 3l29 -131q18 -78 28 -192q8 94 29 193l24 110
q4 15 19 17.5t101 2.5z" />
    <glyph glyph-name="Thorn" unicode="&#xde;" horiz-adv-x="349" 
d="M142 580h2q101 0 148 -44.5t47 -161.5q0 -65 -16 -111t-44.5 -69.5t-60 -33.5t-69.5 -10h-7v-130q0 -15 -15.5 -17.5t-96.5 -2.5v673q0 18 14 22.5t62 4.5h36v-120zM142 480v-223q7 -4 20 -4q26 0 38.5 28t12.5 107q0 95 -44 95z" />
    <glyph glyph-name="germandbls" unicode="&#xdf;" horiz-adv-x="458" 
d="M36 98v452q0 77 44 116t122 39q104 0 155.5 -40.5t51.5 -105.5q0 -30 -13.5 -52t-29 -32.5t-29 -27t-13.5 -36.5q0 -18 20.5 -46t45 -55.5t45 -73.5t20.5 -95q0 -67 -39.5 -108.5t-108.5 -41.5q-59 0 -90 14t-31 34q0 43 27 74q26 -22 65 -22q50 0 50 50q0 29 -20 63.5
t-44 62t-44 65.5t-20 73q0 30 14 54.5t30 37t30 29t14 33.5q0 42 -80 42q-37 0 -47.5 -25t-7.5 -88v-424q0 -42 -13 -58t-53 -16q-19 0 -34.5 3.5t-20.5 6.5l-6 4q2 4 4 11t5 31.5t1 51.5z" />
    <glyph glyph-name="agrave" unicode="&#xe0;" horiz-adv-x="338" 
d="M188 556q-9 0 -65 38.5t-74 58.5q5 31 19.5 56.5t31.5 25.5q10 0 58.5 -42.5t72.5 -75.5q-2 -7 -5 -17t-14 -27t-24 -17zM311 388v-47q0 -245 -5 -319q-54 -32 -144 -32q-32 0 -54 5t-44 20.5t-33 48t-11 82.5q0 94 31.5 129.5t83.5 35.5q41 0 64 -15v69q0 20 -9.5 28.5
t-32.5 8.5q-62 0 -120 -21q-15 29 -15 65q0 24 14 35q13 10 54 19.5t95 9.5q69 0 97.5 -27.5t28.5 -94.5zM199 221q-9 8 -26 8q-18 0 -26.5 -17.5t-8.5 -62.5q0 -37 7 -52t25 -15t27 10q2 22 2 129z" />
    <glyph glyph-name="aacute" unicode="&#xe1;" horiz-adv-x="338" 
d="M158 559q-13 0 -23.5 15.5t-14.5 30.5l-5 15q24 33 72.5 75.5t58.5 42.5q17 0 31.5 -25.5t19.5 -56.5q-18 -20 -74 -58.5t-65 -38.5zM311 388v-47q0 -245 -5 -319q-54 -32 -144 -32q-32 0 -54 5t-44 20.5t-33 48t-11 82.5q0 94 31.5 129.5t83.5 35.5q41 0 64 -15v69
q0 20 -9.5 28.5t-32.5 8.5q-62 0 -120 -21q-15 29 -15 65q0 24 14 35q13 10 54 19.5t95 9.5q69 0 97.5 -27.5t28.5 -94.5zM199 221q-9 8 -26 8q-18 0 -26.5 -17.5t-8.5 -62.5q0 -37 7 -52t25 -15t27 10q2 22 2 129z" />
    <glyph glyph-name="acircumflex" unicode="&#xe2;" horiz-adv-x="338" 
d="M37 590l114 134q10 3 22 3q18 0 31 -14q98 -100 98 -126q0 -27 -77 -27q-33 30 -53 68q-38 -67 -62 -67q-54 0 -73 29zM311 388v-47q0 -245 -5 -319q-54 -32 -144 -32q-32 0 -54 5t-44 20.5t-33 48t-11 82.5q0 94 31.5 129.5t83.5 35.5q41 0 64 -15v69q0 20 -9.5 28.5
t-32.5 8.5q-62 0 -120 -21q-15 29 -15 65q0 24 14 35q13 10 54 19.5t95 9.5q69 0 97.5 -27.5t28.5 -94.5zM199 221q-9 8 -26 8q-18 0 -26.5 -17.5t-8.5 -62.5q0 -37 7 -52t25 -15t27 10q2 22 2 129z" />
    <glyph glyph-name="atilde" unicode="&#xe3;" horiz-adv-x="338" 
d="M18 624q24 41 59.5 62t65.5 21q21 0 42.5 -21.5t39.5 -21.5q25 0 39 15.5t21 15.5q9 0 18 -15.5t13 -31.5l5 -15q-6 -8 -17 -20.5t-42 -33.5t-59 -21q-27 0 -44 21t-35 21t-33 -15.5t-21 -15.5q-13 0 -26 13.5t-20 27.5zM311 388v-47q0 -245 -5 -319q-54 -32 -144 -32
q-32 0 -54 5t-44 20.5t-33 48t-11 82.5q0 94 31.5 129.5t83.5 35.5q41 0 64 -15v69q0 20 -9.5 28.5t-32.5 8.5q-62 0 -120 -21q-15 29 -15 65q0 24 14 35q13 10 54 19.5t95 9.5q69 0 97.5 -27.5t28.5 -94.5zM199 221q-9 8 -26 8q-18 0 -26.5 -17.5t-8.5 -62.5q0 -37 7 -52
t25 -15t27 10q2 22 2 129z" />
    <glyph glyph-name="adieresis" unicode="&#xe4;" horiz-adv-x="338" 
d="M40 627q0 26 16.5 44t44.5 18q61 0 61 -62q0 -26 -16.5 -43.5t-44.5 -17.5q-34 0 -47.5 15t-13.5 46zM185 627q0 26 16.5 44t43.5 18q61 0 61 -62q0 -26 -16.5 -43.5t-44.5 -17.5q-34 0 -47 15t-13 46zM311 388v-47q0 -245 -5 -319q-54 -32 -144 -32q-32 0 -54 5
t-44 20.5t-33 48t-11 82.5q0 94 31.5 129.5t83.5 35.5q41 0 64 -15v69q0 20 -9.5 28.5t-32.5 8.5q-62 0 -120 -21q-15 29 -15 65q0 24 14 35q13 10 54 19.5t95 9.5q69 0 97.5 -27.5t28.5 -94.5zM199 221q-9 8 -26 8q-18 0 -26.5 -17.5t-8.5 -62.5q0 -37 7 -52t25 -15t27 10
q2 22 2 129z" />
    <glyph glyph-name="aring" unicode="&#xe5;" horiz-adv-x="338" 
d="M63 653q0 105 108 105q54 0 77.5 -22.5t23.5 -80.5q0 -106 -107 -106q-53 0 -77.5 22.5t-24.5 81.5zM140 653q0 -32 27 -32q30 0 30 33q0 31 -26 31q-31 0 -31 -32zM311 388v-47q0 -245 -5 -319q-54 -32 -144 -32q-32 0 -54 5t-44 20.5t-33 48t-11 82.5q0 94 31.5 129.5
t83.5 35.5q41 0 64 -15v69q0 20 -9.5 28.5t-32.5 8.5q-62 0 -120 -21q-15 29 -15 65q0 24 14 35q13 10 54 19.5t95 9.5q69 0 97.5 -27.5t28.5 -94.5zM199 221q-9 8 -26 8q-18 0 -26.5 -17.5t-8.5 -62.5q0 -37 7 -52t25 -15t27 10q2 22 2 129z" />
    <glyph glyph-name="ae" unicode="&#xe6;" horiz-adv-x="536" 
d="M375 99q60 0 118 28q9 -30 9 -99q0 -13 -43 -25t-99 -12q-57 0 -83 21q-44 -22 -115 -22q-34 0 -54.5 4.5t-43 19.5t-33.5 50.5t-11 91.5q0 94 31.5 134.5t79.5 40.5q45 0 68 -15v58q0 37 -48 37q-66 0 -114 -26q-15 25 -15 68q0 19 12 29q34 28 158 28q64 0 85 -37
q32 37 104 37q128 0 128 -163q0 -87 -14 -142q-93 -11 -174 2q1 -69 11.5 -88.5t42.5 -19.5zM366 413q-40 0 -44 -121q44 -8 73 -5q5 15 5 52q0 46 -7 60t-27 14zM199 92v150q-11 7 -26 7q-35 0 -35 -90q0 -49 5.5 -63t24.5 -14q24 0 31 10z" />
    <glyph glyph-name="ccedilla" unicode="&#xe7;" horiz-adv-x="291" 
d="M125 -110l17 101q-66 6 -94 58.5t-28 189.5q0 69 11 120t27.5 79.5t41.5 45t47.5 21.5t50.5 5q37 0 60 -13.5t23 -37.5q0 -30 -10 -60q-30 13 -63 13q-21 0 -35 -10t-25 -50t-11 -111q0 -87 14 -119.5t53 -32.5q36 0 64 14q9 -37 9 -59q0 -21 -21.5 -34.5t-57.5 -17.5
l-9 -49h16q21 0 36 -18t15 -53q0 -39 -24.5 -66.5t-65.5 -27.5q-15 0 -30 4t-22 8l-8 4q9 44 16 51q3 3 9.5 0t16.5 -8t20 -5q28 0 28 32t-26 32q-14 0 -25 -1.5t-15 -2.5z" />
    <glyph glyph-name="egrave" unicode="&#xe8;" horiz-adv-x="344" 
d="M204 556q-9 0 -65 38.5t-74 58.5q5 31 19.5 56.5t31.5 25.5q10 0 58.5 -42.5t72.5 -75.5q-2 -7 -5 -17t-14 -27t-24 -17zM202 99q48 0 106 28q9 -30 9 -75q0 -29 -40.5 -45.5t-101.5 -16.5q-36 0 -63 10.5t-48.5 36t-32.5 73t-11 116.5q0 87 13.5 146t40 87.5t55 39.5
t67.5 11q128 0 128 -163q0 -87 -14 -142q-57 -12 -173 -14q2 -50 16 -71t49 -21zM181 413q-41 0 -44 -135q54 0 73 9q5 15 5 52q0 46 -7 60t-27 14z" />
    <glyph glyph-name="eacute" unicode="&#xe9;" horiz-adv-x="344" 
d="M174 559q-13 0 -23.5 15.5t-14.5 30.5l-5 15q24 33 72.5 75.5t58.5 42.5q17 0 31.5 -25.5t19.5 -56.5q-18 -20 -74 -58.5t-65 -38.5zM202 99q48 0 106 28q9 -30 9 -75q0 -29 -40.5 -45.5t-101.5 -16.5q-36 0 -63 10.5t-48.5 36t-32.5 73t-11 116.5q0 87 13.5 146t40 87.5
t55 39.5t67.5 11q128 0 128 -163q0 -87 -14 -142q-57 -12 -173 -14q2 -50 16 -71t49 -21zM181 413q-41 0 -44 -135q54 0 73 9q5 15 5 52q0 46 -7 60t-27 14z" />
    <glyph glyph-name="ecircumflex" unicode="&#xea;" horiz-adv-x="344" 
d="M53 590l114 134q10 3 22 3q18 0 31 -14q98 -100 98 -126q0 -27 -77 -27q-33 30 -53 68q-38 -67 -62 -67q-54 0 -73 29zM202 99q48 0 106 28q9 -30 9 -75q0 -29 -40.5 -45.5t-101.5 -16.5q-36 0 -63 10.5t-48.5 36t-32.5 73t-11 116.5q0 87 13.5 146t40 87.5t55 39.5
t67.5 11q128 0 128 -163q0 -87 -14 -142q-57 -12 -173 -14q2 -50 16 -71t49 -21zM181 413q-41 0 -44 -135q54 0 73 9q5 15 5 52q0 46 -7 60t-27 14z" />
    <glyph glyph-name="edieresis" unicode="&#xeb;" horiz-adv-x="344" 
d="M56 627q0 26 16.5 44t44.5 18q61 0 61 -62q0 -26 -16.5 -43.5t-44.5 -17.5q-34 0 -47.5 15t-13.5 46zM201 627q0 26 16.5 44t43.5 18q61 0 61 -62q0 -26 -16.5 -43.5t-44.5 -17.5q-34 0 -47 15t-13 46zM202 99q48 0 106 28q9 -30 9 -75q0 -29 -40.5 -45.5t-101.5 -16.5
q-36 0 -63 10.5t-48.5 36t-32.5 73t-11 116.5q0 87 13.5 146t40 87.5t55 39.5t67.5 11q128 0 128 -163q0 -87 -14 -142q-57 -12 -173 -14q2 -50 16 -71t49 -21zM181 413q-41 0 -44 -135q54 0 73 9q5 15 5 52q0 46 -7 60t-27 14z" />
    <glyph glyph-name="igrave" unicode="&#xec;" horiz-adv-x="180" 
d="M111 556q-9 0 -65 38.5t-74 58.5q5 31 19.5 56.5t31.5 25.5q10 0 58.5 -42.5t72.5 -75.5q-2 -7 -5 -17t-14 -27t-24 -17zM147 500v-480q0 -15 -14.5 -17.5t-99.5 -2.5v451q0 35 19.5 42t94.5 7z" />
    <glyph glyph-name="iacute" unicode="&#xed;" horiz-adv-x="180" 
d="M81 559q-13 0 -23.5 15.5t-15.5 30.5l-4 15q24 33 72.5 75.5t58.5 42.5q17 0 31.5 -25.5t19.5 -56.5q-18 -20 -74 -58.5t-65 -38.5zM147 500v-480q0 -15 -14.5 -17.5t-99.5 -2.5v451q0 35 19.5 42t94.5 7z" />
    <glyph glyph-name="icircumflex" unicode="&#xee;" horiz-adv-x="180" 
d="M-40 590l114 134q10 3 22 3q18 0 31 -14q98 -100 98 -126q0 -27 -77 -27q-33 30 -53 68q-38 -67 -62 -67q-54 0 -73 29zM147 500v-480q0 -15 -14.5 -17.5t-99.5 -2.5v451q0 35 19.5 42t94.5 7z" />
    <glyph glyph-name="idieresis" unicode="&#xef;" horiz-adv-x="180" 
d="M-37 627q0 26 16.5 44t44.5 18q61 0 61 -62q0 -26 -16.5 -43.5t-44.5 -17.5q-34 0 -47.5 15t-13.5 46zM108 627q0 26 16.5 44t43.5 18q61 0 61 -62q0 -26 -16.5 -43.5t-44.5 -17.5q-34 0 -47 15t-13 46zM147 500v-480q0 -15 -14.5 -17.5t-99.5 -2.5v451q0 35 19.5 42
t94.5 7z" />
    <glyph glyph-name="eth" unicode="&#xf0;" horiz-adv-x="385" 
d="M328 624l-23 -9q60 -126 60 -326q0 -68 -7 -117.5t-24 -93t-51.5 -66t-84.5 -22.5q-94 0 -136 60t-42 208q0 119 41 185.5t106 66.5q40 0 62 -16q-9 38 -30 80l-91 -35q-11 28 -15.5 40.5t-8 27t-1.5 20.5t9 9l49 19l-40 40q13 22 36.5 36t46.5 14q26 0 40 -17
q14 -12 29 -31l59 23q11 -28 15.5 -40.5t8 -27t1.5 -20t-9 -8.5zM195 82q36 0 46 47t10 149q0 64 -4 107q-19 26 -47 26q-34 0 -49.5 -51t-15.5 -123q0 -155 60 -155z" />
    <glyph glyph-name="ntilde" unicode="&#xf1;" horiz-adv-x="361" 
d="M30 624q24 41 59.5 62t65.5 21q21 0 42.5 -21.5t39.5 -21.5q25 0 39 15.5t21 15.5q9 0 18 -15.5t13 -31.5l5 -15q-6 -8 -17 -20.5t-42 -33.5t-59 -21q-27 0 -44 21t-35 21t-33 -15.5t-21 -15.5q-13 0 -26 13.5t-20 27.5zM33 0v477q25 12 72 22.5t83 10.5q78 0 111 -28
t33 -101v-361q0 -15 -15 -17.5t-101 -2.5v346q0 40 -6.5 54t-26.5 14q-21 0 -38 -12v-382q0 -15 -14.5 -17.5t-97.5 -2.5z" />
    <glyph glyph-name="ograve" unicode="&#xf2;" horiz-adv-x="362" 
d="M201 556q-9 0 -65 38.5t-74 58.5q5 31 19.5 56.5t31.5 25.5q10 0 58.5 -42.5t72.5 -75.5q-2 -7 -5 -17t-14 -27t-24 -17zM20 251q0 259 166 259q84 0 120 -54.5t36 -200.5q0 -141 -40.5 -203t-123.5 -62q-59 0 -90.5 18t-49.5 75.5t-18 167.5zM143 252q0 -75 4.5 -113
t12 -47t21.5 -9q11 0 18.5 9t13.5 48.5t6 111.5q0 104 -7 133t-30 29q-13 0 -20.5 -10t-13 -47t-5.5 -105z" />
    <glyph glyph-name="oacute" unicode="&#xf3;" horiz-adv-x="362" 
d="M171 559q-13 0 -23.5 15.5t-15.5 30.5l-4 15q24 33 72.5 75.5t58.5 42.5q17 0 31.5 -25.5t19.5 -56.5q-18 -20 -74 -58.5t-65 -38.5zM20 251q0 259 166 259q84 0 120 -54.5t36 -200.5q0 -141 -40.5 -203t-123.5 -62q-59 0 -90.5 18t-49.5 75.5t-18 167.5zM143 252
q0 -75 4.5 -113t12 -47t21.5 -9q11 0 18.5 9t13.5 48.5t6 111.5q0 104 -7 133t-30 29q-13 0 -20.5 -10t-13 -47t-5.5 -105z" />
    <glyph glyph-name="ocircumflex" unicode="&#xf4;" horiz-adv-x="362" 
d="M50 590l114 134q11 3 22 3q18 0 31 -14q98 -100 98 -126q0 -27 -77 -27q-33 30 -53 68q-38 -67 -62 -67q-54 0 -73 29zM20 251q0 259 166 259q84 0 120 -54.5t36 -200.5q0 -141 -40.5 -203t-123.5 -62q-59 0 -90.5 18t-49.5 75.5t-18 167.5zM143 252q0 -75 4.5 -113
t12 -47t21.5 -9q11 0 18.5 9t13.5 48.5t6 111.5q0 104 -7 133t-30 29q-13 0 -20.5 -10t-13 -47t-5.5 -105z" />
    <glyph glyph-name="otilde" unicode="&#xf5;" horiz-adv-x="362" 
d="M31 624q24 41 59.5 62t65.5 21q21 0 42.5 -21.5t39.5 -21.5q19 0 29.5 8t17 15.5t13.5 7.5q9 0 18 -15.5t14 -31.5l4 -15q-6 -8 -17 -20.5t-42 -33.5t-59 -21q-26 0 -44 21t-35 21t-33 -15.5t-21 -15.5q-13 0 -26 13.5t-19 27.5zM20 251q0 259 166 259q84 0 120 -54.5
t36 -200.5q0 -141 -40.5 -203t-123.5 -62q-59 0 -90.5 18t-49.5 75.5t-18 167.5zM143 252q0 -75 4.5 -113t12 -47t21.5 -9q11 0 18.5 9t13.5 48.5t6 111.5q0 104 -7 133t-30 29q-13 0 -20.5 -10t-13 -47t-5.5 -105z" />
    <glyph glyph-name="odieresis" unicode="&#xf6;" horiz-adv-x="362" 
d="M53 627q0 26 16.5 44t44.5 18q61 0 61 -62q0 -26 -16.5 -43.5t-44.5 -17.5q-34 0 -47.5 15t-13.5 46zM198 627q0 26 16.5 44t43.5 18q61 0 61 -62q0 -26 -16.5 -43.5t-44.5 -17.5q-34 0 -47 15t-13 46zM20 251q0 259 166 259q84 0 120 -54.5t36 -200.5q0 -141 -40.5 -203
t-123.5 -62q-59 0 -90.5 18t-49.5 75.5t-18 167.5zM143 252q0 -75 4.5 -113t12 -47t21.5 -9q11 0 18.5 9t13.5 48.5t6 111.5q0 104 -7 133t-30 29q-13 0 -20.5 -10t-13 -47t-5.5 -105z" />
    <glyph glyph-name="divide" unicode="&#xf7;" 
d="M139 438q0 27 16.5 45t44.5 18q62 0 62 -63q0 -26 -17 -44t-45 -18q-34 0 -47.5 15.5t-13.5 46.5zM355 234h-330q0 57 3 76.5t17 19.5h330q0 -57 -3 -76.5t-17 -19.5zM139 121q0 27 16.5 45t44.5 18q62 0 62 -63q0 -26 -17 -44t-45 -18q-34 0 -47.5 15.5t-13.5 46.5z" />
    <glyph glyph-name="oslash" unicode="&#xf8;" horiz-adv-x="398" 
d="M406 478q0 -15 -53 -112q7 -42 7 -111q0 -141 -40.5 -203t-123.5 -62q-72 0 -105 30q-19 -37 -28 -50q-20 3 -40 16.5t-20 28.5q0 9 47 90q-12 54 -12 146q0 259 166 259q73 0 108 -38q27 44 32 50q62 -18 62 -44zM161 247l70 133q-4 21 -11 27.5t-20 6.5t-20.5 -10
t-13 -47t-5.5 -105v-5zM199 83q11 0 18.5 9t13.5 48.5t6 111.5v1q-37 -70 -69 -130q4 -25 11 -32.5t20 -7.5z" />
    <glyph glyph-name="ugrave" unicode="&#xf9;" horiz-adv-x="358" 
d="M199 556q-9 0 -65 38.5t-74 58.5q5 31 19.5 56.5t31.5 25.5q10 0 58.5 -42.5t72.5 -75.5q-2 -7 -5 -17t-14 -27t-24 -17zM328 500v-472q-64 -38 -148 -38q-85 0 -118 37t-33 113v340q0 14 9 16q12 4 107 4v-367q0 -25 6.5 -36t26.5 -11q24 0 38 13v381v1q0 14 14 16.5
t98 2.5z" />
    <glyph glyph-name="uacute" unicode="&#xfa;" horiz-adv-x="358" 
d="M169 559q-13 0 -23.5 15.5t-15.5 30.5l-4 15q24 33 72.5 75.5t58.5 42.5q17 0 31.5 -25.5t19.5 -56.5q-18 -20 -74 -58.5t-65 -38.5zM328 500v-472q-64 -38 -148 -38q-85 0 -118 37t-33 113v340q0 14 9 16q12 4 107 4v-367q0 -25 6.5 -36t26.5 -11q24 0 38 13v381v1
q0 14 14 16.5t98 2.5z" />
    <glyph glyph-name="ucircumflex" unicode="&#xfb;" horiz-adv-x="358" 
d="M48 590l114 134q11 3 22 3q18 0 31 -14q98 -100 98 -126q0 -27 -77 -27q-33 30 -53 68q-38 -67 -62 -67q-54 0 -73 29zM328 500v-472q-64 -38 -148 -38q-85 0 -118 37t-33 113v340q0 14 9 16q12 4 107 4v-367q0 -25 6.5 -36t26.5 -11q24 0 38 13v381v1q0 14 14 16.5
t98 2.5z" />
    <glyph glyph-name="udieresis" unicode="&#xfc;" horiz-adv-x="358" 
d="M51 627q0 26 16.5 44t44.5 18q61 0 61 -62q0 -26 -16.5 -43.5t-44.5 -17.5q-34 0 -47.5 15t-13.5 46zM196 627q0 26 16.5 44t43.5 18q61 0 61 -62q0 -26 -16.5 -43.5t-44.5 -17.5q-34 0 -47 15t-13 46zM328 500v-472q-64 -38 -148 -38q-85 0 -118 37t-33 113v340
q0 14 9 16q12 4 107 4v-367q0 -25 6.5 -36t26.5 -11q24 0 38 13v381v1q0 14 14 16.5t98 2.5z" />
    <glyph glyph-name="yacute" unicode="&#xfd;" horiz-adv-x="340" 
d="M163 559q-13 0 -23.5 15.5t-15.5 30.5l-4 15q24 33 72.5 75.5t58.5 42.5q17 0 31.5 -25.5t19.5 -56.5q-18 -20 -74 -58.5t-65 -38.5zM121 -16l-109 487q-5 22 8.5 25.5t101.5 3.5l29 -173q7 -39 13 -89.5t9 -81.5l3 -31q9 114 21 202l19 142q3 23 18.5 27t100.5 4
l-112 -523q-21 -98 -51 -134t-91 -36q-92 0 -92 50q0 38 14 61q23 -17 68 -17q41 0 50 83z" />
    <glyph glyph-name="thorn" unicode="&#xfe;" horiz-adv-x="364" 
d="M145 735v-228q24 2 36 2q79 0 120 -43.5t41 -158.5q0 -317 -131 -317q-43 0 -66 19v-200q-25 -9 -67 -9q-29 0 -37 9.5t-8 39.5v837q0 35 19.5 42t92.5 7zM145 398v-296q7 -18 28 -18q12 0 20.5 13t15.5 63.5t7 139.5q0 52 -5 76.5t-12.5 30.5t-25.5 6q-15 0 -28 -15z
" />
    <glyph glyph-name="ydieresis" unicode="&#xff;" horiz-adv-x="340" 
d="M45 627q0 26 16.5 44t44.5 18q61 0 61 -62q0 -26 -16.5 -43.5t-44.5 -17.5q-34 0 -47.5 15t-13.5 46zM190 627q0 26 16.5 44t43.5 18q61 0 61 -62q0 -26 -16.5 -43.5t-44.5 -17.5q-34 0 -47 15t-13 46zM121 -16l-109 487q-5 22 8.5 25.5t101.5 3.5l29 -173
q7 -39 13 -89.5t9 -81.5l3 -31q9 114 21 202l19 142q3 23 18.5 27t100.5 4l-112 -523q-21 -98 -51 -134t-91 -36q-92 0 -92 50q0 38 14 61q23 -17 68 -17q41 0 50 83z" />
    <glyph glyph-name="dotlessi" unicode="&#x131;" horiz-adv-x="180" 
d="M147 500v-480q0 -15 -14.5 -17.5t-99.5 -2.5v451q0 35 19.5 42t94.5 7z" />
    <glyph glyph-name="Lslash" unicode="&#x141;" horiz-adv-x="298" 
d="M142 105h141v-85q0 -20 -20 -20h-233v295l-27 -6q-6 29 -8.5 42.5t-4 28t2 20.5t10.5 8l27 6v278q0 21 14.5 24.5t97.5 3.5v-282l91 19q17 -78 11 -90q-3 -7 -10 -8l-92 -20v-214z" />
    <glyph glyph-name="lslash" unicode="&#x142;" horiz-adv-x="198" 
d="M155 419l33 7q17 -78 11 -90q-3 -7 -10 -8l-34 -8v-300q0 -15 -14 -17.5t-98 -2.5v295l-29 -6q-6 29 -8.5 42.5t-4 28t2 20.5t10.5 8l29 6v292q0 35 19.5 42t92.5 7v-316z" />
    <glyph glyph-name="OE" unicode="&#x152;" horiz-adv-x="548" 
d="M390 328v-228h141q0 -72 -2.5 -86t-17.5 -14h-213v22q-39 -30 -103 -30q-68 0 -105.5 30t-56 108t-18.5 222q0 196 44.5 276.5t143.5 80.5q60 0 96 -25q3 16 19 16h220q0 -70 -2.5 -85t-17.5 -15h-128v-170h121q0 -68 -2.5 -85t-16.5 -17h-102zM201 101q35 0 47.5 57
t12.5 196q0 143 -10.5 196t-48.5 53q-34 0 -46.5 -61.5t-12.5 -212.5q0 -127 11 -177.5t47 -50.5z" />
    <glyph glyph-name="oe" unicode="&#x153;" horiz-adv-x="552" 
d="M398 99q60 0 118 28q9 -30 9 -99q0 -13 -43 -25.5t-99 -12.5q-71 0 -105 34q-35 -34 -100 -34q-59 0 -90.5 18t-49.5 75.5t-18 167.5q0 258 166 258q71 0 106 -36q37 37 112 37q128 0 128 -163q0 -87 -14 -142q-57 -12 -173 -14q1 -59 11.5 -75.5t41.5 -16.5zM181 83
q11 0 18.5 9t13.5 48.5t6 111.5q0 104 -7 132.5t-30 28.5q-13 0 -20.5 -10t-13 -47t-5.5 -104q0 -75 4.5 -113t12 -47t21.5 -9zM389 413q-41 0 -44 -135q54 0 73 9q5 15 5 52q0 46 -7 60t-27 14z" />
    <glyph glyph-name="Scaron" unicode="&#x160;" horiz-adv-x="344" 
d="M200 751q-16 0 -60.5 40.5t-63.5 67.5q9 27 23.5 49t25.5 22q10 0 30 -19t35 -37l15 -19q15 24 31 41t24 22l9 6q44 -23 44 -48q0 -19 -49 -72t-64 -53zM162 288l-91 122q-56 74 -56 147q0 70 46 111.5t132 41.5q136 0 136 -56q0 -34 -26 -63q-9 7 -35 13.5t-52 6.5
q-79 0 -79 -51q0 -39 36 -89l96 -123q35 -45 47.5 -81.5t12.5 -81.5q0 -195 -182 -195q-64 0 -97.5 19.5t-33.5 47.5q0 43 25 81q36 -33 93 -33q73 0 73 77q0 47 -45 106z" />
    <glyph glyph-name="scaron" unicode="&#x161;" horiz-adv-x="318" 
d="M184 551q-16 0 -60.5 40.5t-63.5 67.5q9 27 23.5 49t25.5 22q10 0 30 -19t35 -37l15 -19q15 24 31 41t24 22l9 6q44 -23 44 -48q0 -19 -49 -72t-64 -53zM153 188l-87 92q-48 51 -48 106q0 124 165 124q123 0 123 -63q0 -29 -22 -54q-38 21 -86 21q-47 0 -47 -30
q0 -20 29 -50l74 -75q29 -34 39.5 -60.5t10.5 -64.5q0 -67 -45.5 -105.5t-122.5 -38.5q-117 0 -117 59q0 30 18 63q41 -22 87 -22q51 0 51 42q0 31 -22 56z" />
    <glyph glyph-name="Ydieresis" unicode="&#x178;" horiz-adv-x="368" 
d="M60 827q0 26 16.5 44t44.5 18q61 0 61 -62q0 -26 -16.5 -43.5t-44.5 -17.5q-34 0 -47.5 15t-13.5 46zM205 827q0 26 16.5 44t43.5 18q61 0 61 -62q0 -26 -16.5 -43.5t-44.5 -17.5q-34 0 -47 15t-13 46zM243 294v-274v-1q0 -14 -14 -16.5t-98 -2.5v287l-125 396
q-3 11 7 14q13 3 121 3l29 -131q18 -78 28 -192q8 94 29 193l24 110q4 15 19 17.5t101 2.5z" />
    <glyph glyph-name="Zcaron" unicode="&#x17d;" horiz-adv-x="376" 
d="M199 751q-16 0 -60.5 40.5t-63.5 67.5q9 27 23.5 49t25.5 22q10 0 30 -19t35 -37l15 -19q15 24 31 41t25 22l8 6q44 -23 44 -48q0 -19 -49 -72t-64 -53zM25 596v83q0 21 21 21h300q10 -17 10 -35q0 -23 -10 -48l-211 -518h155q43 0 67 10v-89q0 -20 -20 -20h-309
q-15 17 -15 43q0 24 9 47l206 511h-156q-30 0 -47 -5z" />
    <glyph glyph-name="zcaron" unicode="&#x17e;" horiz-adv-x="300" 
d="M161 551q-16 0 -60.5 40.5t-63.5 67.5q9 27 23.5 49t25.5 22q10 0 30 -19t35 -37l15 -19q15 24 31 41t25 22l8 6q44 -23 44 -48q0 -19 -49 -72t-64 -53zM49 500h230q11 -11 11 -33t-13 -53l-136 -311h55q54 0 88 14q4 -16 4 -48q-1 -37 -10 -53t-35 -16h-214
q-19 16 -19 55q0 21 9 40l146 312h-81q-38 0 -66 -5q-4 23 -4 51q0 25 8 36t27 11z" />
    <glyph glyph-name="longs" unicode="&#x17f;" horiz-adv-x="175" 
d="M31 88v500q0 78 45 114t137 36q51 0 84.5 -17t33.5 -45q0 -34 -28 -67q-44 33 -93 33q-37 0 -51.5 -24.5t-14.5 -72.5v-501q0 -32 -14 -42t-52 -10q-19 0 -33 3.5t-19 6.5l-4 4q9 43 9 82z" />
    <glyph glyph-name="florin" unicode="&#x192;" horiz-adv-x="456" 
d="M172 500v60q0 55 15 92.5t42.5 55t54.5 24t62 6.5q61 0 80.5 -15t19.5 -44q0 -24 -11 -54q-27 13 -68 13q-42 0 -62.5 -13.5t-20.5 -52.5v-72h131q0 -57 -3 -76.5t-17 -19.5h-111v-423q0 -55 -15 -92.5t-42.5 -55t-54.5 -24t-62 -6.5q-61 0 -80.5 14.5t-19.5 44.5
q0 24 11 54q27 -13 68 -13q42 0 62.5 13.5t20.5 52.5v435h-107q0 57 3 76.5t17 19.5h87z" />
    <glyph glyph-name="uni0237" unicode="&#x237;" horiz-adv-x="187" 
d="M153 500v-536q0 -161 -139 -161q-57 0 -80.5 14.5t-23.5 45.5q0 36 15 55q30 -13 72 -13q27 0 35.5 15t8.5 59v472q0 35 19.5 42t92.5 7z" />
    <glyph glyph-name="circumflex" unicode="&#x2c6;" horiz-adv-x="265" 
d="M0 590l114 134q10 3 22 3q18 0 31 -14q98 -100 98 -126q0 -27 -77 -27q-33 30 -53 68q-38 -67 -62 -67q-54 0 -73 29z" />
    <glyph glyph-name="caron" unicode="&#x2c7;" horiz-adv-x="237" 
d="M124 551q-16 0 -60.5 40.5t-63.5 67.5q9 27 23.5 49t25.5 22q10 0 30 -19t35 -37l15 -19q15 24 31 41t24 22l9 6q44 -23 44 -48q0 -19 -49 -72t-64 -53z" />
    <glyph glyph-name="breve" unicode="&#x2d8;" horiz-adv-x="273" 
d="M54 727q10 -27 30 -48t46 -21q18 0 33 9.5t21 18.5t16 26q16 21 41.5 2t31.5 -49q-42 -113 -144 -113q-48 0 -88.5 35t-40.5 77q0 22 11.5 36.5t42.5 26.5z" />
    <glyph glyph-name="dotaccent" unicode="&#x2d9;" horiz-adv-x="114" 
d="M0 646q0 78 61 78q30 0 41.5 -16t11.5 -57q0 -86 -60 -86q-27 0 -40.5 18t-13.5 63z" />
    <glyph glyph-name="ring" unicode="&#x2da;" horiz-adv-x="209" 
d="M0 653q0 105 108 105q54 0 77.5 -22.5t23.5 -80.5q0 -106 -107 -106q-53 0 -77.5 22.5t-24.5 81.5zM77 653q0 -32 27 -32q30 0 30 33q0 31 -26 31q-31 0 -31 -32z" />
    <glyph glyph-name="ogonek" unicode="&#x2db;" horiz-adv-x="160" 
d="M109 32q13 0 22 -4q21 -8 29 -28q-61 -47 -61 -90q0 -27 25 -27q14 0 25 7q11 -22 11 -44q0 -11 -5 -19q-14 -22 -66 -22q-89 0 -89 89q0 53 36.5 95.5t72.5 42.5z" />
    <glyph glyph-name="tilde" unicode="&#x2dc;" horiz-adv-x="303" 
d="M0 624q24 41 59.5 62t65.5 21q21 0 42.5 -21.5t39.5 -21.5q25 0 39 15.5t21 15.5q9 0 18 -15.5t13 -31.5l5 -15q-6 -8 -17 -20.5t-42 -33.5t-59 -21q-27 0 -44 21t-35 21t-33 -15.5t-21 -15.5q-13 0 -26 13.5t-20 27.5z" />
    <glyph glyph-name="hungarumlaut" unicode="&#x2dd;" horiz-adv-x="349" 
d="M0 596l60 154q10 32 48 32q26 0 47.5 -16.5t23.5 -44.5l-93 -146q-11 -17 -32 -17q-16 0 -31.5 9.5t-22.5 28.5zM149 606l91 141q13 21 41 21q27 0 47 -21t21 -57l-122 -125q-10 -10 -25 -10q-19 0 -35 15t-18 36z" />
    <glyph glyph-name="Delta" unicode="&#x394;" horiz-adv-x="413" 
d="M19 0l120 635q11 69 75 69q38 0 60 -18l119 -686h-374zM207 556l-64 -451h130l-61 451h-5z" />
    <glyph glyph-name="Omega" unicode="&#x3a9;" horiz-adv-x="406" 
d="M345 0h-123q14 67 21 103t14.5 104t7.5 136q0 133 -15 190.5t-47 57.5q-21 0 -33 -14t-20 -61t-8 -133q0 -182 44 -383h-154q-9 25 -9 51q0 54 34 54h35q-25 37 -45 113t-20 177q0 164 44.5 239.5t146.5 75.5q91 0 126.5 -72.5t35.5 -240.5q0 -107 -19.5 -183t-44.5 -109
h56q10 -26 10 -52q0 -20 -9 -36.5t-28 -16.5z" />
    <glyph glyph-name="mu" unicode="&#x3bc;" horiz-adv-x="366" 
d="M336 499v-475q-72 -34 -158 -34q-25 0 -37 12v-152q0 -46 -62 -46q-17 0 -50 7v646q0 49 57 49q33 0 55 -7v-366q0 -38 40 -38q23 0 43 9v353q0 26 11.5 37.5t43.5 11.5q35 0 57 -7z" />
    <glyph glyph-name="pi" unicode="&#x3c0;" horiz-adv-x="434" 
d="M58 500h342q10 -23 10 -49q0 -24 -9.5 -40t-28.5 -16h-13v-359q0 -22 -19.5 -31.5t-43.5 -9.5q-27 0 -50 7v393h-66v-359q0 -41 -64 -41q-27 0 -48 7v393h-35q-9 22 -9 47q0 58 34 58z" />
    <glyph glyph-name="afii10023" unicode="&#x401;" horiz-adv-x="300" 
d="M40 827q0 26 16.5 44t44.5 18q61 0 61 -62q0 -26 -16.5 -43.5t-44.5 -17.5q-34 0 -47.5 15t-13.5 46zM185 827q0 26 16.5 44t43.5 18q61 0 61 -62q0 -26 -16.5 -43.5t-44.5 -17.5q-34 0 -47 15t-13 46zM142 328v-228h141q0 -72 -2.5 -86t-17.5 -14h-233v680q1 20 20 20
h240q0 -70 -2.5 -85t-17.5 -15h-128v-170h121q0 -68 -2.5 -85t-16.5 -17h-102z" />
    <glyph glyph-name="afii10017" unicode="&#x410;" horiz-adv-x="437" 
d="M267 698l167 -680q2 -7 -1.5 -11t-15 -6.5t-33.5 -2.5q-36 0 -65 2l-33 159h-133l-29 -140q-2 -8 -4.5 -12t-13.5 -6.5t-33 -2.5q-36 0 -71 4l167 679q4 21 45 21q34 0 53 -4zM174 260h91l-19 93q-15 71 -26 189q-14 -127 -27 -189z" />
    <glyph glyph-name="afii10018" unicode="&#x411;" horiz-adv-x="357" 
d="M144 605v-170h28q92 0 133.5 -50t41.5 -155q0 -114 -49.5 -172t-132.5 -58h-135v680q1 20 20 20h264q0 -69 -2.5 -82t-17.5 -13h-150zM144 328v-229q7 -2 20 -2q23 0 36.5 36t13.5 101q0 55 -11.5 75.5t-36.5 20.5z" />
    <glyph glyph-name="afii10019" unicode="&#x412;" horiz-adv-x="358" 
d="M30 0v680q0 20 28 20h98q169 0 169 -157q0 -71 -27.5 -113t-64.5 -47q115 -12 115 -145q0 -107 -45.5 -172.5t-141.5 -65.5h-131zM144 602v-178h19q18 0 28 26t10 69q0 83 -34 83h-23zM144 330v-233h20q23 0 36.5 35t13.5 96q0 63 -11 82.5t-37 19.5h-22z" />
    <glyph glyph-name="afii10020" unicode="&#x413;" horiz-adv-x="311" 
d="M124 0h-94v680q1 20 20 20h258q0 -69 -2.5 -82t-17.5 -13h-146v-585q0 -20 -18 -20z" />
    <glyph glyph-name="afii10021" unicode="&#x414;" horiz-adv-x="450" 
d="M393 700h-162q-84 0 -98 -2.5t-14 -16.5v-1q-8 -254 -22.5 -382t-47.5 -193q-36 -1 -40 -6q-4 -4 -4 -14v-232q44 0 61.5 4.5t24.5 22.5q15 39 24 120h209q6 -55 33 -147q33 0 46 1t22.5 8t9.5 23v220h-42v595zM283 105h-122q30 84 44.5 198t21.5 292h56v-490z" />
    <glyph glyph-name="afii10022" unicode="&#x415;" horiz-adv-x="300" 
d="M142 328v-228h141q0 -72 -2.5 -86t-17.5 -14h-233v680q1 20 20 20h240q0 -70 -2.5 -85t-17.5 -15h-128v-170h121q0 -68 -2.5 -85t-16.5 -17h-102z" />
    <glyph glyph-name="afii10024" unicode="&#x416;" horiz-adv-x="590" 
d="M134 693l104 -280v267q0 15 14 17.5t100 2.5v-287l105 280q26 6 80 6q23 0 32.5 -6t3.5 -20l-104 -272q32 -37 54 -90t30 -102t12 -92.5t3 -69.5l-1 -26q0 -14 -6.5 -18.5t-26.5 -4.5q-63 0 -90 2q0 54 -2.5 95t-10.5 94.5t-28 90t-51 50.5v-310q0 -15 -14 -17.5
t-100 -2.5v330q-25 -11 -43 -39.5t-27 -60.5t-14 -78t-6 -77.5t-1 -74.5q-28 -2 -91 -2q-19 0 -26 4.5t-7 18.5q-1 10 -1 27.5t3 67t12 95t30.5 99.5t53.5 91l-104 272q-5 14 4.5 20t31.5 6q55 0 81 -6z" />
    <glyph glyph-name="afii10025" unicode="&#x417;" horiz-adv-x="321" 
d="M61 316v90q30 4 46 8t35 16t27.5 36t8.5 62q0 79 -61 79q-49 0 -85 -31q-22 41 -22 76q0 20 34 41t96 21q74 0 115 -42t41 -118q0 -120 -60 -161q-19 -13 -34 -15q18 0 30 -5q79 -33 79 -142q0 -127 -55 -186t-135 -59q-48 0 -79 22t-31 53q0 30 20 83q38 -40 81 -40
q32 0 56 30t24 94q0 51 -34.5 69t-96.5 19z" />
    <glyph glyph-name="afii10026" unicode="&#x418;" horiz-adv-x="432" 
d="M244 268l-95 -241q-8 -18 -17 -22q-13 -5 -101 -5v680v1q0 14 14 16.5t98 2.5v-263q0 -56 -12 -205q6 20 19 69.5t22 83t13 44.5l96 244q8 20 23.5 23.5t96.5 3.5v-680v-1q0 -14 -14 -16.5t-98 -2.5v257q0 109 14 229q-41 -177 -59 -218z" />
    <glyph glyph-name="afii10027" unicode="&#x419;" horiz-adv-x="432" 
d="M148 927q10 -27 30 -48t46 -21q18 0 33 9.5t21 18.5t16 26q16 21 41.5 2t31.5 -49q-42 -113 -144 -113q-48 0 -88.5 35t-40.5 77q0 22 11.5 36.5t42.5 26.5zM244 268l-95 -241q-8 -18 -17 -22q-13 -5 -101 -5v680v1q0 14 14 16.5t98 2.5v-263q0 -56 -12 -205
q6 20 19 69.5t22 83t13 44.5l96 244q8 20 23.5 23.5t96.5 3.5v-680v-1q0 -14 -14 -16.5t-98 -2.5v257q0 109 14 229q-41 -177 -59 -218z" />
    <glyph glyph-name="afii10028" unicode="&#x41a;" horiz-adv-x="388" 
d="M142 414l109 279q36 8 72 8q30 0 42 -6.5t6 -21.5l-114 -272q108 -101 108 -380q0 -14 -9 -18.5t-38 -4.5q-38 0 -80 3q0 231 -66 305q-13 14 -30 22v-308q0 -15 -14.5 -17.5t-99.5 -2.5v680q0 15 14 17.5t100 2.5v-286z" />
    <glyph glyph-name="afii10029" unicode="&#x41b;" horiz-adv-x="451" 
d="M420 700h-172q-84 0 -98 -2.5t-14 -16.5v-1q-5 -271 -21 -425t-56 -154q-29 0 -44 9q-16 -34 -16 -77q0 -18 25.5 -28t53.5 -10q92 0 120 119.5t47 480.5h63v-595q84 0 98 2.5t14 16.5v1v680z" />
    <glyph glyph-name="afii10030" unicode="&#x41c;" horiz-adv-x="477" 
d="M265 452l68 228q4 12 7.5 16t12.5 4h94v-680q0 -15 -14.5 -17.5t-100.5 -2.5l5 190q2 72 9 146.5t14 113.5l6 39l-3 2q-34 -136 -50 -184l-48 -133q-2 -7 -11 -7h-46l-47 140q-9 28 -48 184l-4 -2q27 -134 29 -298l3 -171q0 -15 -15.5 -17.5t-95.5 -2.5v680q0 9 3 14
t6.5 5.5t10.5 0.5h85l79 -246q9 -28 15.5 -53t8.5 -37l3 -11q6 40 24 99z" />
    <glyph glyph-name="afii10031" unicode="&#x41d;" horiz-adv-x="382" 
d="M351 700v-680v-1q0 -14 -14 -16.5t-98 -2.5v323h-96v-303v-1q0 -14 -14 -16.5t-98 -2.5v680v1q0 14 14 16.5t98 2.5v-275h96v255v1q0 14 14 16.5t98 2.5z" />
    <glyph glyph-name="afii10032" unicode="&#x41e;" horiz-adv-x="409" 
d="M20 354q0 198 45.5 276.5t145.5 78.5t139 -74t39 -277q0 -206 -44 -286.5t-145 -80.5q-69 0 -106 29t-55.5 107.5t-18.5 226.5zM148 329q0 -126 11 -174t47 -48t48 54.5t12 192.5q0 141 -10.5 190.5t-48.5 49.5q-34 0 -46.5 -58t-12.5 -207z" />
    <glyph glyph-name="afii10033" unicode="&#x41f;" horiz-adv-x="380" 
d="M237 0v595h-94v-575q0 -15 -14.5 -17.5t-97.5 -2.5v680q0 15 14.5 17.5t97.5 2.5h206v-680q0 -15 -14.5 -17.5t-97.5 -2.5z" />
    <glyph glyph-name="afii10034" unicode="&#x420;" horiz-adv-x="349" 
d="M50 700h94q101 0 148 -44.5t47 -161.5q0 -65 -16 -111t-44.5 -69.5t-60 -33.5t-69.5 -10h-7v-250q0 -15 -14 -17.5t-98 -2.5v680q0 11 4 15.5t16 4.5zM142 373h20q26 0 38.5 28t12.5 107q0 95 -44 95h-27v-230z" />
    <glyph glyph-name="afii10035" unicode="&#x421;" horiz-adv-x="325" 
d="M220 715q58 0 76.5 -15.5t18.5 -43.5q0 -33 -16 -67q-23 17 -52 17q-109 0 -109 -270q0 -128 17.5 -177t60.5 -49q50 0 78 15q15 -32 15 -66q0 -35 -32.5 -54.5t-89.5 -19.5q-60 0 -94.5 26.5t-53.5 102.5t-19 213q0 388 200 388z" />
    <glyph glyph-name="afii10036" unicode="&#x422;" horiz-adv-x="380" 
d="M30 700h340v-84q0 -12 -4.5 -16t-15.5 -4h-106v-576q0 -15 -14.5 -17.5t-97.5 -2.5v596h-122v84q0 20 20 20z" />
    <glyph glyph-name="afii10037" unicode="&#x423;" horiz-adv-x="375" 
d="M117 700h-80q-30 0 -30 -16q0 -8 9 -43q28 -113 74.5 -283t66.5 -217q-6 -47 -26 -47q-17 0 -49 18q-24 -52 -19 -80q3 -16 29.5 -27t59.5 -10q23 0 40 8t27 19t18.5 35.5t13 42.5t11.5 55q10 42 59 289.5t49 255.5h-80q-18 0 -25.5 -8.5t-11.5 -28.5l-24 -144
q-29 -177 -30 -253q-4 34 -18.5 120.5t-21.5 132.5z" />
    <glyph glyph-name="afii10038" unicode="&#x424;" horiz-adv-x="553" 
d="M333 61v-51q0 -14 -9 -16q-11 -4 -103 -4v67q-209 26 -209 297q0 115 52.5 192.5t155.5 96.5v18q0 37 14.5 43t98.5 6v-65q208 -34 208 -288q0 -119 -52 -199t-156 -97zM332 539v-371q88 32 88 187q0 156 -88 184zM221 164v373q-46 -17 -69 -69.5t-23 -125.5
q0 -150 92 -178z" />
    <glyph glyph-name="afii10039" unicode="&#x425;" horiz-adv-x="421" 
d="M286 373l123 -357q8 -16 -11 -16h-124l-38 116q-16 50 -34 119q-17 -65 -37 -119l-38 -102q-8 -14 -23 -14h-97l135 359l-108 322q-4 13 9 16q17 3 125 3l29 -105q18 -64 27 -114q16 74 28 114l26 87q4 14 19 16t100 2z" />
    <glyph glyph-name="afii10040" unicode="&#x426;" horiz-adv-x="410" 
d="M31 0v680q0 15 14.5 17.5t97.5 2.5v-595h93v575q0 15 14.5 17.5t97.5 2.5v-595h47v-220q0 -16 -9.5 -23t-22.5 -8t-46 -1q-25 74 -33 147h-253z" />
    <glyph glyph-name="afii10041" unicode="&#x427;" horiz-adv-x="356" 
d="M325 700v-680q0 -15 -14 -17.5t-97 -2.5v268q-31 -8 -69 -8q-134 0 -134 184v236q0 15 14 17.5t96 2.5v-242q0 -46 10.5 -71t40.5 -25q22 0 42 9v309q0 15 14.5 17.5t96.5 2.5z" />
    <glyph glyph-name="afii10042" unicode="&#x428;" horiz-adv-x="537" 
d="M31 0v680q0 14 7 16q11 4 103 4v-595h73v575v2q0 14 13.5 16t95.5 2v-595h74v575v2q0 14 13.5 16t95.5 2v-648q0 -35 -8 -42q-11 -10 -88 -10h-16h-363z" />
    <glyph glyph-name="afii10043" unicode="&#x429;" horiz-adv-x="567" 
d="M31 0v680q0 14 7 16q11 4 103 4v-595h73v575v2q0 14 13.5 16t95.5 2v-595h74v575v2q0 14 13.5 16t95.5 2v-595h46v-220q0 -16 -9.5 -23t-22.5 -8t-46 -1q-22 66 -32 147h-411z" />
    <glyph glyph-name="afii10044" unicode="&#x42a;" horiz-adv-x="437" 
d="M110 0v605h-100v66q0 29 26 29h188v-265h28q92 0 133.5 -50t41.5 -155q0 -114 -49.5 -172t-132.5 -58h-135zM224 328v-229q7 -2 20 -2q23 0 36.5 36t13.5 101q0 55 -11.5 75.5t-36.5 20.5z" />
    <glyph glyph-name="afii10045" unicode="&#x42b;" horiz-adv-x="515" 
d="M30 0v680q0 15 14.5 17.5t99.5 2.5v-265h27q89 0 129 -50t40 -155q0 -114 -48 -172t-128 -58h-134zM371 0q2 173 2 350l-2 301q0 37 14.5 43t99.5 6q-2 -201 -2 -350l2 -330q0 -15 -14.5 -17.5t-99.5 -2.5zM144 328v-229q7 -2 19 -2q20 0 32 36t12 101q0 55 -10.5 75.5
t-31.5 20.5z" />
    <glyph glyph-name="afii10046" unicode="&#x42c;" horiz-adv-x="357" 
d="M30 0v680q0 15 14.5 17.5t99.5 2.5v-265h28q92 0 133.5 -50t41.5 -155q0 -114 -49.5 -172t-132.5 -58h-135zM144 328v-229q7 -2 20 -2q23 0 36.5 36t13.5 101q0 55 -11.5 75.5t-36.5 20.5z" />
    <glyph glyph-name="afii10047" unicode="&#x42d;" horiz-adv-x="318" 
d="M54 403h131q-2 67 -9.5 109t-23 60.5t-30 23.5t-38.5 5q-29 0 -52 -17q-16 27 -16 65q0 59 108 59q40 0 69.5 -14t56 -50t40.5 -107t14 -176q0 -92 -8.5 -158.5t-23 -107t-38 -64.5t-50 -32.5t-63.5 -8.5q-45 0 -75.5 17.5t-30.5 44.5q0 46 15 78q28 -15 78 -15
q36 0 54 45t22 141h-111q-14 0 -16.5 17.5t-2.5 84.5z" />
    <glyph glyph-name="afii10048" unicode="&#x42e;" horiz-adv-x="568" 
d="M146 700v-291h40q5 167 48.5 234t135.5 67q66 0 103.5 -30.5t56 -107t18.5 -214.5q0 -140 -20 -221t-59.5 -114t-106.5 -33q-64 0 -100 25.5t-55.5 94.5t-21.5 197h-39v-287v-1q0 -14 -14 -16.5t-98 -2.5v680v1q0 14 14 16.5t98 2.5zM310 329q0 -126 10.5 -174.5
t45.5 -48.5q34 0 45.5 54.5t11.5 193.5q0 141 -10 191t-46 50q-33 0 -45 -58.5t-12 -207.5z" />
    <glyph glyph-name="afii10049" unicode="&#x42f;" horiz-adv-x="359" 
d="M217 262h-12h-12q-14 -23 -23.5 -44.5t-19.5 -72.5t-14 -123q0 -15 -8.5 -20t-42.5 -5q-35 0 -73 3q0 196 78 298q-77 60 -77 196q0 117 50 161.5t152 44.5h94q9 0 14 -5t5 -10l1 -5v-680q-84 0 -98 2.5t-14 16.5v1v242zM217 369v231q-11 3 -27 3q-51 0 -51 -95
q0 -122 43 -140q8 -3 15 -3z" />
    <glyph glyph-name="afii10065" unicode="&#x430;" horiz-adv-x="338" 
d="M311 388v-47q0 -245 -5 -319q-54 -32 -144 -32q-32 0 -54 5t-44 20.5t-33 48t-11 82.5q0 94 31.5 129.5t83.5 35.5q41 0 64 -15v69q0 20 -9.5 28.5t-32.5 8.5q-62 0 -120 -21q-15 29 -15 65q0 24 14 35q13 10 54 19.5t95 9.5q69 0 97.5 -27.5t28.5 -94.5zM199 221
q-9 8 -26 8q-18 0 -26.5 -17.5t-8.5 -62.5q0 -37 7 -52t25 -15t27 10q2 22 2 129z" />
    <glyph glyph-name="afii10066" unicode="&#x431;" horiz-adv-x="359" 
d="M125 665l162 64q26 -69 17 -97q-4 -10 -17 -16l-111 -45q-22 -9 -37.5 -40t-21 -57.5t-11.5 -69.5q21 61 47.5 83.5t69.5 22.5q64 0 93 -61t29 -204q0 -130 -39 -192.5t-121 -62.5q-41 0 -70.5 13t-47.5 35.5t-28.5 59t-14.5 77t-4 96.5v33q1 106 12 165q25 169 93 196z
M186 396q-25 0 -42 -27t-17 -88q0 -104 12.5 -147t43.5 -43q53 0 53 138q0 83 -10.5 125t-39.5 42z" />
    <glyph glyph-name="afii10067" unicode="&#x432;" horiz-adv-x="345" 
d="M33 0v480q0 20 28 20h90q160 0 160 -115q0 -59 -27 -87t-60 -33q15 0 27 -2q10 -2 18.5 -5t25.5 -13t27 -32t10 -53q0 -69 -43 -114.5t-132 -45.5h-124zM140 413v-116q4 -1 18 -1t25 17t11 50q0 52 -32 52zM140 222v-132q5 -1 19 -1q46 0 46 83q0 31 -10 41.5t-34 10.5z
" />
    <glyph glyph-name="afii10068" unicode="&#x433;" horiz-adv-x="274" 
d="M33 0v405q0 65 3.5 80t19.5 15h212q0 -66 -3 -80.5t-19 -14.5h-101v-385v-1q0 -14 -14 -16.5t-98 -2.5z" />
    <glyph glyph-name="afii10069" unicode="&#x434;" horiz-adv-x="417" 
d="M5 84v-212q47 0 63 4t22 21q14 44 23 103h178q5 -44 32 -128q46 0 61 4.5t15 26.5v201h-39v396h-149q-84 0 -98 -2.5t-14 -16.5v-1q-8 -277 -49 -376q-39 -2 -43 -7q-2 -4 -2 -13zM245 405v-301h-87q33 99 46 301h41z" />
    <glyph glyph-name="afii10070" unicode="&#x435;" horiz-adv-x="344" 
d="M202 99q48 0 106 28q9 -30 9 -75q0 -29 -40.5 -45.5t-101.5 -16.5q-36 0 -63 10.5t-48.5 36t-32.5 73t-11 116.5q0 87 13.5 146t40 87.5t55 39.5t67.5 11q128 0 128 -163q0 -87 -14 -142q-57 -12 -173 -14q2 -50 16 -71t49 -21zM181 413q-41 0 -44 -135q54 0 73 9
q5 15 5 52q0 46 -7 60t-27 14z" />
    <glyph glyph-name="afii10072" unicode="&#x436;" horiz-adv-x="504" 
d="M196 0v215q-57 -19 -66 -198q-1 -12 -1 -17q-7 0 -26.5 -0.5t-31 -0.5t-24 1.5t-17.5 5.5q-9 8 -9 25q0 32 3 68.5t22 97t52 93.5l-77 169q-10 23 -2.5 32t34.5 9q45 0 64 -4l79 -199v183q0 12 3 14q7 6 109 6v-203l80 199q18 4 63 4q27 0 34.5 -9t-1.5 -32l-78 -169
q78 -78 78 -259q0 -31 -38 -31h-71q-6 115 -18 153q-17 51 -49 62v-195v-1q0 -14 -14 -16.5t-98 -2.5z" />
    <glyph glyph-name="afii10073" unicode="&#x437;" horiz-adv-x="320" 
d="M75 213v76q109 0 109 85q0 37 -57 37q-42 0 -85 -32q-29 37 -29 63q0 23 31.5 45.5t98.5 22.5q149 0 149 -123q0 -32 -10 -56.5t-22.5 -36t-27.5 -19t-22.5 -9t-10.5 -1.5q43 0 75.5 -26t32.5 -81q0 -78 -43 -123t-127 -45q-56 0 -88.5 17.5t-32.5 43.5q0 33 18 70
q54 -30 95 -30q66 0 66 75q0 29 -27 38t-93 9z" />
    <glyph glyph-name="afii10074" unicode="&#x438;" horiz-adv-x="365" 
d="M168 310l74 164q9 20 20.5 23t71.5 3v-480q0 -15 -12.5 -17.5t-85.5 -2.5v189q0 15 8.5 76.5t9.5 81.5q-18 -65 -55 -152l-77 -169q-9 -20 -20.5 -23t-69.5 -3v480q0 15 14 17.5t84 2.5v-184q0 -7 -17 -150q31 93 55 144z" />
    <glyph glyph-name="afii10075" unicode="&#x439;" horiz-adv-x="365" 
d="M113 727q10 -27 30 -48t46 -21q18 0 33 9.5t21 18.5t16 26q16 21 41.5 2t31.5 -49q-42 -113 -144 -113q-48 0 -88.5 35t-40.5 77q0 22 11.5 36.5t42.5 26.5zM168 310l74 164q9 20 20.5 23t71.5 3v-480q0 -15 -12.5 -17.5t-85.5 -2.5v189q0 15 8.5 76.5t9.5 81.5
q-18 -65 -55 -152l-77 -169q-9 -20 -20.5 -23t-69.5 -3v480q0 15 14 17.5t84 2.5v-184q0 -7 -17 -150q31 93 55 144z" />
    <glyph glyph-name="afii10076" unicode="&#x43a;" horiz-adv-x="354" 
d="M34 0v480v2q0 14 14 16t98 2v-203l82 199q19 4 66 4q28 0 36 -9t-2 -32l-84 -169q29 -23 48.5 -55.5t27 -71t10 -67t2.5 -65.5q0 -31 -40 -31h-74q-2 32 -3 49.5t-6 50.5t-12 52.5t-20 38t-31 24.5v-195q0 -11 -4 -14q-8 -6 -108 -6z" />
    <glyph glyph-name="afii10077" unicode="&#x43b;" horiz-adv-x="403" 
d="M253 405h-46q-6 -94 -8.5 -134.5t-11 -99t-20.5 -92.5q-29 -84 -93 -84q-76 0 -76 42q0 34 13 61q16 -7 39 -7q14 0 25 38q26 91 30 351v1q0 14 14 16.5t98 2.5h152v-480q0 -14 -9 -16q-14 -4 -107 -4v405z" />
    <glyph glyph-name="afii10078" unicode="&#x43c;" horiz-adv-x="457" 
d="M33 0v486q0 14 18 14h81l73 -176l26 -72q5 29 22 71l63 163q7 14 19 14h89v-486q0 -10 -13.5 -12t-94.5 -2l4 169q0 38 7 83t13 71l7 26q-6 0 -47 -119l-3 -11l-44 -96q-4 -4 -10 -4h-43l-44 100q-5 9 -12 29.5t-17.5 53t-16.5 48.5l-1 -1q24 -95 25 -178l3 -157
q0 -10 -14.5 -12t-89.5 -2z" />
    <glyph glyph-name="afii10079" unicode="&#x43d;" horiz-adv-x="367" 
d="M333 500v-480q0 -14 -9 -16q-14 -4 -107 -4v203h-71v-183v-1q0 -14 -14 -16.5t-98 -2.5v480v2q0 14 14 16t98 2v-202h71v182q0 15 15 17.5t101 2.5z" />
    <glyph glyph-name="afii10080" unicode="&#x43e;" horiz-adv-x="362" 
d="M20 251q0 259 166 259q84 0 120 -54.5t36 -200.5q0 -141 -40.5 -203t-123.5 -62q-59 0 -90.5 18t-49.5 75.5t-18 167.5zM143 252q0 -75 4.5 -113t12 -47t21.5 -9q11 0 18.5 9t13.5 48.5t6 111.5q0 104 -7 133t-30 29q-13 0 -20.5 -10t-13 -47t-5.5 -105z" />
    <glyph glyph-name="afii10081" unicode="&#x43f;" horiz-adv-x="365" 
d="M331 500v-480q0 -14 -9 -16q-14 -4 -107 -4v405h-69v-385v-1q0 -14 -14 -16.5t-98 -2.5v480v2q0 14 14 16t98 2h185z" />
    <glyph glyph-name="afii10082" unicode="&#x440;" horiz-adv-x="362" 
d="M33 -148v619q63 39 148 39q79 0 120 -44t41 -159q0 -97 -10 -162t-29 -97.5t-40.5 -45t-51.5 -12.5q-43 0 -66 19v-197q-25 -9 -58 -9q-30 0 -42 10t-12 39zM145 402v-295q12 -18 28 -18q7 0 12.5 3.5t11.5 16t10 34.5t6.5 62t2.5 95q0 69 -9 91.5t-32 22.5
q-16 0 -30 -12z" />
    <glyph glyph-name="afii10083" unicode="&#x441;" horiz-adv-x="291" 
d="M281 459q0 -30 -10 -60q-30 13 -63 13q-21 0 -35 -10t-25 -50t-11 -111q0 -87 14 -119.5t53 -32.5q36 0 64 14q9 -37 9 -59q0 -25 -30.5 -39.5t-78.5 -14.5q-82 0 -115 50t-33 199q0 69 11 120t27.5 79.5t41.5 45t47.5 21.5t50.5 5q37 0 60 -13.5t23 -37.5z" />
    <glyph glyph-name="afii10084" unicode="&#x442;" horiz-adv-x="315" 
d="M285 405h-71v-385v-1q0 -14 -14 -16.5t-98 -2.5v405h-94q0 65 3 80t20 15h276q0 -65 -3.5 -80t-18.5 -15z" />
    <glyph glyph-name="afii10085" unicode="&#x443;" horiz-adv-x="340" 
d="M121 -16l-109 487q-5 22 8.5 25.5t101.5 3.5l29 -173q7 -39 13 -89.5t9 -81.5l3 -31q9 114 21 202l19 142q3 23 18.5 27t100.5 4l-112 -523q-21 -98 -51 -134t-91 -36q-92 0 -92 50q0 38 14 61q23 -17 68 -17q41 0 50 83z" />
    <glyph glyph-name="afii10086" unicode="&#x444;" horiz-adv-x="518" 
d="M204 493v164q0 35 17 42t91 7v-214q28 18 55 18q65 0 101 -53t36 -178q0 -67 -9.5 -119t-24.5 -83t-35 -51.5t-38.5 -28t-37.5 -7.5q-27 0 -47 12v-193q-26 -9 -63 -9q-29 0 -37 9.5t-8 39.5v156q-25 -15 -46 -15q-63 0 -103.5 69t-40.5 170q0 281 136 281q25 0 54 -17z
M204 103v295q-12 6 -17 6q-57 0 -57 -165q0 -64 17 -102.5t40 -38.5q9 0 17 5zM312 398v-293q6 -5 15 -5q6 0 13 3.5t15.5 14.5t15 29t11 49.5t4.5 73.5q0 65 -13.5 99.5t-37.5 34.5q-13 0 -23 -6z" />
    <glyph glyph-name="afii10087" unicode="&#x445;" horiz-adv-x="379" 
d="M259 267l108 -243q7 -16 -1 -20q-11 -4 -124 -4l-20 48q-19 44 -42 116q-21 -66 -39 -116l-10 -27q-6 -15 -25 -18t-99 -3l117 259l-102 223q-5 12 3 15q12 3 115 3l22 -55q17 -43 35 -105q30 91 36 105l14 36q6 14 21.5 16.5t100.5 2.5z" />
    <glyph glyph-name="afii10088" unicode="&#x446;" horiz-adv-x="394" 
d="M268 0h-234v480q0 14 9 16q12 4 107 4v-396h68v376v1q0 14 14 16.5t98 2.5v-396h46v-201q0 -22 -15 -26.5t-62 -4.5q-26 79 -31 128z" />
    <glyph glyph-name="afii10089" unicode="&#x447;" horiz-adv-x="346" 
d="M312 500v-480q0 -14 -9 -16q-12 -4 -107 -4v172q-38 -12 -63 -12q-54 0 -85.5 39.5t-31.5 111.5v169v2q0 14 14 16t98 2v-178q0 -33 6.5 -49.5t25.5 -16.5t36 9v215q0 15 15 17.5t101 2.5z" />
    <glyph glyph-name="afii10090" unicode="&#x448;" horiz-adv-x="553" 
d="M519 500v-480v-2q0 -14 -14 -16t-98 -2h-373v480q0 14 8 16q12 4 107 4v-396h70v376q0 15 14.5 17.5t100.5 2.5v-396h70v376q0 15 14.5 17.5t100.5 2.5z" />
    <glyph glyph-name="afii10091" unicode="&#x449;" horiz-adv-x="582" 
d="M456 0h-422v480q0 14 8 16q12 4 107 4v-396h70v376q0 15 14.5 17.5t100.5 2.5v-396h70v376q0 15 14.5 17.5t100.5 2.5v-396h45v-201q0 -15 -9.5 -22t-22 -8t-45.5 -1q-26 79 -31 128z" />
    <glyph glyph-name="afii10092" unicode="&#x44a;" horiz-adv-x="408" 
d="M203 316h33q83 0 121 -30t38 -109q0 -86 -44.5 -131.5t-119.5 -45.5h-135v405h-88q0 68 3 81.5t18 13.5h174v-184zM203 231v-141q6 -1 19 -1q46 0 46 83q0 39 -10 50t-34 11z" />
    <glyph glyph-name="afii10093" unicode="&#x44b;" horiz-adv-x="495" 
d="M140 500v-184h31q80 0 116.5 -30t36.5 -109q0 -86 -42.5 -131.5t-114.5 -45.5h-134v450q0 36 15 43t92 7zM461 500v-480q0 -14 -9 -16q-11 -4 -103 -4v451q0 35 19 42t93 7zM140 231v-141q6 -1 18 -1q40 0 40 83q0 40 -8.5 50.5t-30.5 10.5z" />
    <glyph glyph-name="afii10094" unicode="&#x44c;" horiz-adv-x="345" 
d="M140 500v-184h33q83 0 121 -30t38 -109q0 -102 -53.5 -139.5t-155.5 -37.5h-90v450q0 25 7 35q8 10 27 12.5t73 2.5zM140 231v-141q6 -1 19 -1q46 0 46 83q0 40 -9.5 50.5t-34.5 10.5z" />
    <glyph glyph-name="afii10095" unicode="&#x44d;" horiz-adv-x="288" 
d="M70 297h86q-2 42 -8 68t-17 36.5t-20 13t-25 2.5q-33 0 -63 -13q-10 34 -10 74q0 13 26.5 25t56.5 12t51 -3.5t47 -18t42 -40.5t27 -75.5t11 -118.5q0 -112 -17 -171t-51.5 -81t-99.5 -22q-34 0 -61.5 14t-27.5 32q0 29 9 67q28 -14 68 -14q31 0 44.5 26t16.5 92h-108
q0 65 3.5 80t19.5 15z" />
    <glyph glyph-name="afii10096" unicode="&#x44e;" horiz-adv-x="513" 
d="M146 295h37q15 219 162 219q82 0 118 -56t36 -203q0 -142 -40 -207.5t-122 -65.5q-52 0 -82.5 16.5t-49.5 65.5t-22 138h-37v-182v-1q0 -14 -14 -16.5t-98 -2.5v480v2q0 14 14 16t98 2v-205zM304 252q0 -75 4.5 -115t11.5 -51t20 -11q37 0 37 177q0 105 -7 135.5
t-29 30.5q-11 0 -18.5 -11t-13 -49.5t-5.5 -105.5z" />
    <glyph glyph-name="afii10097" unicode="&#x44f;" horiz-adv-x="340" 
d="M199 186h-20q-35 -46 -39 -158q-1 -31 -47 -31q-45 0 -69 3q0 149 65 221q-69 42 -69 125q0 76 43.5 115t121.5 39h122v-480q0 -15 -13.5 -17.5t-94.5 -2.5v186zM200 274v139q-9 3 -24 3t-25.5 -18.5t-10.5 -47.5q0 -77 40 -77z" />
    <glyph glyph-name="afii10071" unicode="&#x451;" horiz-adv-x="344" 
d="M56 627q0 26 16.5 44t44.5 18q61 0 61 -62q0 -26 -16.5 -43.5t-44.5 -17.5q-34 0 -47.5 15t-13.5 46zM201 627q0 26 16.5 44t43.5 18q61 0 61 -62q0 -26 -16.5 -43.5t-44.5 -17.5q-34 0 -47 15t-13 46zM202 99q48 0 106 28q9 -30 9 -75q0 -29 -40.5 -45.5t-101.5 -16.5
q-36 0 -63 10.5t-48.5 36t-32.5 73t-11 116.5q0 87 13.5 146t40 87.5t55 39.5t67.5 11q128 0 128 -163q0 -87 -14 -142q-57 -12 -173 -14q2 -50 16 -71t49 -21zM181 413q-41 0 -44 -135q54 0 73 9q5 15 5 52q0 46 -7 60t-27 14z" />
    <glyph glyph-name="uni049A" unicode="&#x49a;" horiz-adv-x="407" 
d="M362 105h46v-220q0 -21 -14.5 -26.5t-63.5 -5.5q-27 87 -32 145q-28 2 -60 3q0 231 -66 305q-13 14 -30 22v-308q0 -15 -14.5 -17.5t-99.5 -2.5v680q0 15 14 17.5t100 2.5v-286l109 279q36 8 72 8q30 0 42 -6.5t6 -21.5l-114 -272q89 -84 105 -296z" />
    <glyph glyph-name="uni049B" unicode="&#x49b;" horiz-adv-x="375" 
d="M329 105h47v-220q0 -21 -14.5 -26.5t-63.5 -5.5q-27 89 -32 147h-13h-35q-2 32 -3 49.5t-6 50.5t-12 52.5t-20 38t-31 24.5v-195q0 -11 -4 -14q-8 -6 -108 -6v480v2q0 14 14 16t98 2v-203l82 199q19 4 66 4q28 0 36 -9t-2 -32l-84 -169q74 -59 85 -185z" />
    <glyph glyph-name="uni04A2" unicode="&#x4a2;" horiz-adv-x="408" 
d="M351 105h57v-220q0 -21 -14.5 -26.5t-63.5 -5.5q-27 89 -32 147h-13h-46v323h-96v-303v-1q0 -14 -14 -16.5t-98 -2.5v680v1q0 14 14 16.5t98 2.5v-275h96v255v1q0 14 14 16.5t98 2.5v-595z" />
    <glyph glyph-name="uni04A3" unicode="&#x4a3;" horiz-adv-x="386" 
d="M333 105h55v-220q0 -21 -14.5 -26.5t-63.5 -5.5q-27 89 -32 147h-13h-48v203h-71v-183v-1q0 -14 -14 -16.5t-98 -2.5v480v2q0 14 14 16t98 2v-202h71v182q0 15 15 17.5t101 2.5v-395z" />
    <glyph glyph-name="endash" unicode="&#x2013;" horiz-adv-x="410" 
d="M360 234h-330q0 57 3 76.5t17 19.5h330q0 -57 -3 -76.5t-17 -19.5z" />
    <glyph glyph-name="emdash" unicode="&#x2014;" horiz-adv-x="700" 
d="M674 234h-668q0 57 3 76.5t17 19.5h668q0 -57 -3 -76.5t-17 -19.5z" />
    <glyph glyph-name="quoteleft" unicode="&#x2018;" horiz-adv-x="193" 
d="M164 635q0 -27 -18.5 -46t-45.5 -19q-71 0 -71 73q0 56 35.5 106t56.5 50q35 0 42 -29q-21 -35 -27 -75q28 -17 28 -60z" />
    <glyph glyph-name="quoteright" unicode="&#x2019;" horiz-adv-x="193" 
d="M29 735q0 27 18.5 46t45.5 19q71 0 71 -73q0 -56 -35.5 -106t-56.5 -50q-35 0 -42 29q21 35 27 75q-28 17 -28 60z" />
    <glyph glyph-name="quotesinglbase" unicode="&#x201a;" horiz-adv-x="187" 
d="M29 48q0 27 18.5 46t45.5 19q71 0 71 -73q0 -56 -35.5 -106t-56.5 -50q-35 0 -42 29q21 35 27 75q-28 17 -28 60z" />
    <glyph glyph-name="quotedblleft" unicode="&#x201c;" horiz-adv-x="357" 
d="M164 635q0 -27 -18.5 -46t-45.5 -19q-71 0 -71 73q0 56 35.5 106t56.5 50q35 0 42 -29q-21 -35 -27 -75q28 -17 28 -60zM328 635q0 -27 -18.5 -46t-45.5 -19q-71 0 -71 73q0 56 35.5 106t56.5 50q35 0 42 -29q-21 -35 -27 -75q28 -17 28 -60z" />
    <glyph glyph-name="quotedblright" unicode="&#x201d;" horiz-adv-x="357" 
d="M29 735q0 27 18.5 46t45.5 19q71 0 71 -73q0 -56 -35.5 -106t-56.5 -50q-35 0 -42 29q21 35 27 75q-28 17 -28 60zM193 735q0 27 18.5 46t45.5 19q71 0 71 -73q0 -56 -35.5 -106t-56.5 -50q-35 0 -42 29q21 35 27 75q-28 17 -28 60z" />
    <glyph glyph-name="quotedblbase" unicode="&#x201e;" horiz-adv-x="352" 
d="M29 48q0 27 18.5 46t45.5 19q71 0 71 -73q0 -56 -35.5 -106t-56.5 -50q-35 0 -42 29q21 35 27 75q-28 17 -28 60zM193 48q0 27 18.5 46t45.5 19q71 0 71 -73q0 -56 -35.5 -106t-56.5 -50q-35 0 -42 29q21 35 27 75q-28 17 -28 60z" />
    <glyph glyph-name="dagger" unicode="&#x2020;" horiz-adv-x="428" 
d="M190 495l-33 159q-6 25 14 39t49 14q36 0 57 -24l-32 -173q-6 -21 -24 -23.5t-31 8.5zM254 487l99 33q24 11 38 -8t14 -52q0 -41 -23 -59l-113 30q-19 6 -21.5 24t6.5 32zM177 433l-102 -30q-24 -5 -38.5 13.5t-14.5 45.5q0 40 25 61l114 -33q42 -16 16 -57zM243 420
l31 -373q4 -25 -14.5 -39.5t-45.5 -14.5q-40 0 -59 25l32 385q3 25 23.5 27.5t32.5 -10.5z" />
    <glyph glyph-name="daggerdbl" unicode="&#x2021;" horiz-adv-x="428" 
d="M190 495l-33 159q-6 25 14 39t49 14q36 0 57 -24l-32 -173q-6 -21 -24 -23.5t-31 8.5zM254 487l99 33q24 11 38 -8t14 -52q0 -41 -23 -59l-113 30q-19 6 -21.5 24t6.5 32zM177 433l-102 -30q-24 -5 -38.5 13.5t-14.5 45.5q0 40 25 61l114 -33q42 -16 16 -57zM180 263v139
q0 23 21.5 29.5t48.5 -6.5v-142q0 -20 -21 -25.5t-49 5.5zM174 200l-100 -33q-24 -11 -38 9t-14 52q0 41 24 59l113 -31q34 -11 15 -56zM250 253l102 30q25 5 39 -13.5t14 -45.5q0 -40 -24 -61l-114 33q-41 16 -17 57zM238 193l33 -144q6 -25 -13.5 -39t-49.5 -14
q-37 0 -56 24l31 157q6 21 24 24t31 -8z" />
    <glyph glyph-name="bullet" unicode="&#x2022;" horiz-adv-x="235" 
d="M29 286q0 38 24 65t65 27q49 0 69 -23.5t20 -68.5q0 -38 -24 -63.5t-65 -25.5q-49 0 -69 22t-20 67z" />
    <glyph glyph-name="ellipsis" unicode="&#x2026;" horiz-adv-x="562" 
d="M26 64q0 31 19 52t52 21q71 0 71 -73q0 -30 -19 -50.5t-52 -20.5q-39 0 -55 17.5t-16 53.5zM211 64q0 31 19 52t52 21q71 0 71 -73q0 -30 -19 -50.5t-52 -20.5q-39 0 -55 17.5t-16 53.5zM396 64q0 31 19 52t52 21q71 0 71 -73q0 -30 -19 -50.5t-52 -20.5q-39 0 -55 17.5
t-16 53.5z" />
    <glyph glyph-name="perthousand" unicode="&#x2030;" horiz-adv-x="958" 
d="M25 527q0 182 142 182q71 0 102 -39t31 -141q0 -98 -35 -143.5t-106 -45.5q-73 0 -103.5 37.5t-30.5 149.5zM98 33l383 676q61 -21 61 -47q0 -8 -94 -176t-188 -332l-94 -163q-68 21 -68 42zM132 527q0 -63 7.5 -82.5t25.5 -19.5q32 0 32 102q0 62 -6 80t-25 18
q-17 0 -25.5 -20t-8.5 -78zM363 177q0 182 142 182q71 0 102 -39t31 -141q0 -98 -35 -143.5t-106 -45.5q-73 0 -103.5 37.5t-30.5 149.5zM658 177q0 182 142 182q71 0 102 -39t31 -141q0 -98 -35 -143.5t-106 -45.5q-73 0 -103.5 37.5t-30.5 149.5zM470 177q0 -63 7.5 -82.5
t25.5 -19.5q32 0 32 102q0 62 -6 80t-25 18q-17 0 -25.5 -20t-8.5 -78zM765 177q0 -63 7.5 -82.5t25.5 -19.5q32 0 32 102q0 62 -6 80t-25 18q-17 0 -25.5 -20t-8.5 -78z" />
    <glyph glyph-name="guilsinglleft" unicode="&#x2039;" horiz-adv-x="235" 
d="M6 250q0 20 35.5 82.5t70.5 115.5l36 52q19 0 35.5 -14t23.5 -28l7 -15q0 -23 -26 -71t-52 -85l-26 -37q12 -15 29.5 -38.5t46.5 -74t29 -74.5q-3 -7 -8 -17.5t-22.5 -28t-36.5 -17.5q-142 204 -142 250z" />
    <glyph glyph-name="guilsinglright" unicode="&#x203a;" horiz-adv-x="235" 
d="M229 250q0 -20 -35.5 -82.5t-71.5 -115.5l-35 -52q-8 2 -19 6t-29.5 20.5t-18.5 36.5q0 24 26 70.5t52 81.5l27 35q-12 16 -29 41t-46 77t-29 75q0 17 16.5 31.5t32.5 19.5l17 6q142 -206 142 -250z" />
    <glyph glyph-name="fraction" unicode="&#x2044;" horiz-adv-x="195" 
d="M288 673l-264 -662q-6 -21 -33 -21q-41 0 -80 37l261 656q8 27 39 27q41 0 77 -37z" />
    <glyph glyph-name="uni2074" unicode="&#x2074;" horiz-adv-x="380" 
d="M304 704v-244h47q9 -23 9 -51q0 -26 -10 -40.5t-25 -14.5h-21v-40q0 -32 -58 -32q-20 0 -46 6v66h-153q-20 21 -20 58q0 17 6 35q16 55 52.5 118.5t70.5 99.5q39 45 102 45q22 0 46 -6zM126 452h78l6 137q-26 -17 -50 -58t-34 -79z" />
    <glyph glyph-name="Euro" unicode="&#x20ac;" 
d="M275 184h-59q6 -51 21.5 -67.5t47.5 -16.5q51 0 78 13q14 -30 14 -69q0 -20 -32.5 -36.5t-82.5 -16.5q-78 0 -117 40t-49 153h-86q0 53 7.5 72.5t33.5 19.5h41v2q0 31 1 46h-83q0 53 7.5 72.5t33.5 19.5h52q36 191 186 191q102 0 102 -43q0 -50 -16 -74q-21 15 -58 15
q-63 0 -90 -89h117q0 -53 -7.5 -72.5t-33.5 -19.5h-90q-1 -12 -1 -39v-9h104q0 -53 -7.5 -72.5t-33.5 -19.5z" />
    <glyph glyph-name="trademark" unicode="&#x2122;" horiz-adv-x="473" 
d="M24 653v38q0 4 2 6.5t4 2.5h3h175v-38q0 -4 -2 -6t-4 -2l-3 -1h-55v-263q0 -7 -6 -8t-45 -1v272h-69zM342 587l31 104q3 9 9 9h42v-310q0 -7 -6.5 -8t-45.5 -1l2 108q1 24 4 53t6 46l3 16l-1 1q-13 -59 -23 -84l-21 -61q-2 -3 -5 -3h-21l-22 64q-2 7 -22 84l-1 -1
q12 -61 14 -114v-100q0 -7 -7 -8t-44 -1v310q0 9 10 9h38l36 -112l13 -46q2 18 11 45z" />
    <glyph glyph-name="partialdiff" unicode="&#x2202;" horiz-adv-x="412" 
d="M249 726q139 -131 139 -437q0 -68 -7 -117.5t-24 -93t-51.5 -66t-84.5 -22.5q-94 0 -136 60t-42 208q0 119 40.5 185.5t106.5 66.5q38 0 63 -17q-16 61 -46 106.5t-81 93.5q13 22 36.5 36t46.5 14q26 0 40 -17zM218 82q36 0 46 47t10 149q0 64 -4 107q-19 26 -47 26
q-34 0 -49.5 -51t-15.5 -123q0 -155 60 -155z" />
    <glyph glyph-name="product" unicode="&#x220f;" horiz-adv-x="434" 
d="M58 700h342q10 -23 10 -49q0 -24 -9.5 -40t-28.5 -16h-13v-747q0 -22 -19.5 -32t-43.5 -10q-23 0 -50 8v781h-66v-747q0 -22 -19 -32t-45 -10q-24 0 -48 8v781h-35q-9 22 -9 47q0 58 34 58z" />
    <glyph glyph-name="summation" unicode="&#x2211;" horiz-adv-x="370" 
d="M285 -190h-251l134 406l-133 484h274q5 -17 5 -42q0 -63 -26 -63h-104l98 -387l-101 -294h133q4 -25 4 -50q0 -54 -33 -54z" />
    <glyph glyph-name="minus" unicode="&#x2212;" 
d="M355 234h-330q0 57 3 76.5t17 19.5h330q0 -57 -3 -76.5t-17 -19.5z" />
    <glyph glyph-name="radical" unicode="&#x221a;" horiz-adv-x="471" 
d="M132 -187l-94 402q22 25 64.5 24.5t47.5 -30.5l41 -199l72 690h178q9 -20 9 -51q0 -20 -9 -37t-29 -17h-50l-83 -738q-6 -54 -80 -54q-31 0 -67 10z" />
    <glyph glyph-name="infinity" unicode="&#x221e;" horiz-adv-x="587" 
d="M427 404q61 0 97 -38.5t36 -111.5q0 -134 -109 -149q-11 -2 -33 -2q-81 0 -129 70q-66 -68 -127 -68q-65 0 -100 38t-35 108q0 153 137 153q46 0 77 -18t58 -56q61 74 128 74zM408 211q42 0 42 44q0 43 -36 43q-10 0 -22 -6q-8 -5 -14 -13q-4 -4 -12 -13.5t-10 -11.5
q1 -1 4.5 -6.5t4.5 -7.5t4.5 -6.5t5.5 -6t5 -5t6 -5t6.5 -3.5t7.5 -2.5t8 -0.5zM178 208q28 0 60 40q-16 28 -35 39q-12 7 -22 7q-21 0 -32 -12.5t-11 -29.5q0 -44 40 -44z" />
    <glyph glyph-name="integral" unicode="&#x222b;" horiz-adv-x="456" 
d="M172 -31v591q0 55 15 92.5t42.5 55t54.5 24t62 6.5q61 0 80.5 -15t19.5 -44q0 -24 -11 -54q-27 13 -68 13q-42 0 -62.5 -13.5t-20.5 -52.5v-591q0 -55 -15 -92.5t-42.5 -55t-54.5 -24t-62 -6.5q-61 0 -80.5 14.5t-19.5 44.5q0 24 11 54q27 -13 68 -13q42 0 62.5 13.5
t20.5 52.5z" />
    <glyph glyph-name="approxequal" unicode="&#x2248;" 
d="M17 333q59 63 132 63q35 0 61 -18t49 -18q27 0 61 28q24 14 45 -9q18 -20 20 -56q-15 -23 -52 -43.5t-76 -20.5q-32 0 -61.5 17t-52.5 17q-25 0 -56 -13.5t-39 -12.5q-29 5 -31 66zM16 189q52 56 123 56q36 0 67 -17t53 -17q18 0 49 13t43 11q32 -8 34 -62
q-16 -24 -54 -44.5t-81 -20.5q-37 0 -60.5 18.5t-43.5 18.5q-23 0 -64 -29q-24 -13 -45 11.5t-21 61.5z" />
    <glyph glyph-name="notequal" unicode="&#x2260;" 
d="M274 293l-34 -104h135q0 -57 -3 -76.5t-17 -19.5h-146l-26 -78q-8 -22 -35 -22q-36 0 -78 36l21 64h-66q0 57 3 76.5t17 19.5h77l33 104h-130q0 57 3 76.5t17 19.5h142l29 91q9 28 40 28q33 0 77 -36l-27 -83h69q0 -57 -3 -76.5t-17 -19.5h-81z" />
    <glyph glyph-name="lessequal" unicode="&#x2264;" horiz-adv-x="405" 
d="M349 385l-169 -82l190 -88q-1 -33 -17 -59.5t-33 -26.5q-10 0 -31 8l-236 105q-18 31 -18 65q0 43 35 60l258 124q38 -33 40 -74q0 -24 -19 -32zM349 0h-312q0 57 3 76.5t17 19.5h312q0 -57 -3 -76.5t-17 -19.5z" />
    <glyph glyph-name="greaterequal" unicode="&#x2265;" horiz-adv-x="405" 
d="M55 235l170 82l-190 88q1 33 17 59.5t33 26.5q10 0 31 -8l236 -105q18 -31 18 -65q0 -43 -36 -60l-258 -125q-37 36 -39 74q0 25 18 33zM349 0h-310q0 57 3 76.5t17 19.5h310q0 -57 -3 -76.5t-17 -19.5z" />
    <glyph glyph-name="lozenge" unicode="&#x25ca;" horiz-adv-x="440" 
d="M419 349l-199 -356l-198 356l198 357zM296 349l-76 136l-76 -136l76 -134z" />
    <glyph glyph-name="apple" unicode="&#xf8ff;" horiz-adv-x="779" 
d="M389 709q164 0 262 -98t98 -262t-98 -261.5t-262 -97.5q-163 0 -261 98t-98 261q0 164 97.5 262t261.5 98zM399 578q-27 0 -44 -16.5t-17 -46.5q0 -31 19 -54.5t54 -52t54 -52.5q19 24 54.5 52.5t55 52t19.5 54.5q0 30 -17.5 46.5t-44.5 16.5q-43 0 -67 -44
q-24 44 -66 44zM283 415v112q0 12 6 12q3 0 7.5 -0.5t6.5 -0.5q6 0 11.5 5t5.5 13q0 18 -21 18q-6 0 -17 -1.5t-18 -1.5q-8 0 -18.5 1.5t-16.5 1.5q-23 0 -23 -18q0 -7 5.5 -12.5t12.5 -5.5q3 0 7.5 0.5t6.5 0.5q5 0 5 -12v-112q0 -12 -5 -12q-2 0 -6.5 0.5t-7.5 0.5
q-18 0 -18 -16q0 -20 21 -20q11 0 21 2.5t17 2.5q6 0 15.5 -2.5t18.5 -2.5q21 0 21 20q0 16 -17 16q-3 0 -7 -0.5t-7 -0.5q-6 0 -6 12zM592 294h6q18 0 18 16q0 19 -19 19q-6 0 -17 -1.5t-16 -1.5q-7 0 -17 1.5t-15 1.5q-10 0 -15.5 -6t-5.5 -13q0 -6 5 -11t12 -5h8
q11 0 11 -12v-98l-70 127l-2 6q-2 12 -19 12q-4 0 -12 -1t-13 -1q-7 0 -15.5 1t-10.5 1q-14 0 -18 -11q-5 11 -17 11q-5 0 -17.5 -1.5t-17.5 -1.5q-7 0 -18 1.5t-14 1.5q-20 0 -20 -19q0 -17 20 -17q2 0 5 1q-3 -7 -15 -27.5t-16 -28.5l-33 56h2q21 0 21 16q0 19 -19 19
q-7 0 -16 -2t-15 -2t-17.5 2t-18.5 2q-19 0 -19 -19q0 -17 20 -17q3 0 6 0.5t5 0.5q4 0 5 -1l57 -94v-34q0 -8 -5 -8q-3 0 -6.5 1.5t-6.5 1.5q-18 0 -18 -20q0 -16 21 -16q7 0 17.5 1.5t16.5 1.5q7 0 18.5 -1.5t18.5 -1.5q22 0 22 17q0 19 -16 19q-5 0 -9.5 -1.5t-5.5 -1.5
q-6 0 -6 8v36l57 91q2 3 4 3q4 0 7 -0.5t6 -0.5q12 0 16 9q7 -9 16 -9q4 0 8 0.5t5 0.5q6 0 6 -13v-113q0 -12 -6 -12q-1 0 -6 1t-7 1q-18 0 -18 -18q0 -17 21 -17q5 0 17 1.5t19 1.5q8 0 18.5 -1.5t14.5 -1.5q22 0 22 16q0 19 -18 19q-2 0 -7 -1t-6 -1q-6 0 -6 13v97
l68 -123q12 -24 31 -24q27 0 27 44v118q0 12 7 12z" />
    <glyph glyph-name="g.ss01" horiz-adv-x="370" 
d="M337 486v-531q0 -77 -46 -116t-127 -39q-60 0 -94.5 20t-34.5 49q0 34 22 68q52 -32 109 -32q21 0 40 15.5t19 48.5v54q-22 -32 -79 -32q-68 0 -93 54t-25 186q0 154 55.5 218t151.5 64q55 0 102 -27zM228 164v252q-12 6 -25 6q-26 0 -37.5 -39t-11.5 -135q0 -88 8 -123
t27 -35q39 0 39 74z" />
    <glyph glyph-name="f.ss02" horiz-adv-x="257" 
d="M65 407h-60q0 67 3.5 80t23.5 13h33v109q0 72 32 101.5t88 29.5q46 0 63 -11t17 -35q0 -27 -11 -57q-21 9 -40 9q-21 0 -29 -11t-8 -36v-99h72q0 -65 -3.5 -79t-17.5 -14h-51v-387q0 -20 -20 -20h-92v407z" />
    <glyph glyph-name="germandbls.ss05" horiz-adv-x="471" 
d="M417 408l-56 -149q95 -40 95 -165q0 -97 -51 -162t-145 -65q-54 0 -79.5 16t-25.5 36q0 38 26 81q28 -26 68 -26q33 0 59 29.5t26 82.5q0 69 -47 93q-33 15 -75 18l85 210h-153v-323q0 -52 -14.5 -72t-51.5 -20q-19 0 -33 3.5t-19 6.5l-4 4q9 43 9 82v500q0 77 44.5 112
t137.5 35q47 0 82.5 -18.5t35.5 -37.5q0 -12 -7 -30t-14 -31l-7 -12q-44 33 -93 33q-42 0 -54 -24.5t-12 -88.5v-26h286q10 -30 -13 -92z" />
    <glyph glyph-name="z.ss05" horiz-adv-x="333" 
d="M159 407h-150q0 67 2 80t14 13h267q10 -30 -13 -92l-56 -149q95 -40 95 -165q0 -97 -51 -162t-145 -65q-54 0 -79.5 16t-25.5 36q0 38 26 81q28 -26 68 -26q33 0 59 29.5t26 82.5q0 69 -47 93q-33 15 -75 18z" />
    <glyph glyph-name="t_z" horiz-adv-x="584" 
d="M69 131v274h-60q0 65 3.5 80t19.5 15h37v145q0 25 19.5 30t92.5 5v-180h82q0 -66 -3 -80.5t-19 -14.5h-60v-272q0 -16 1 -24t6.5 -16t16.5 -8q25 0 52 13q7 -33 7 -54q0 -54 -91 -54q-62 0 -83 34t-21 107zM333 500h230q11 -11 11 -33t-13 -53l-136 -311h55q54 0 88 14
q4 -16 4 -48q-1 -37 -10 -53t-35 -16h-214q-19 16 -19 55q0 21 9 40l146 312h-81q-38 0 -66 -5q-4 23 -4 51q0 25 8 36t27 11z" />
    <glyph glyph-name="t_z.ss05" horiz-adv-x="493" 
d="M439 408l-56 -149q95 -40 95 -165q0 -99 -45 -163t-139 -64q-43 0 -65 12t-22 30q0 38 26 81q22 -16 53 -16t50.5 28.5t19.5 83.5q0 69 -47 93q-33 15 -75 18l85 208h-138v-378q0 -20 -14.5 -23.5t-97.5 -3.5v405h-60q0 65 3.5 80t19.5 15h37v145q0 25 19.5 30t92.5 5
v-180h271q10 -30 -13 -92z" />
    <glyph glyph-name="ampersand.ss03" horiz-adv-x="418" 
d="M274 426l-12 -104q-46 -3 -76 -29t-30 -63q0 -32 21 -44.5t62 -12.5q34 0 69.5 23t55.5 51q18 -20 32 -48t14 -46q0 -23 -35.5 -52.5t-98.5 -39.5v-65q0 -25 -23.5 -33t-78.5 -8v105q-75 8 -109.5 46.5t-34.5 111.5q0 108 100 148q-20 6 -31 11t-26 17.5t-22 35t-7 54.5
q0 63 37 105.5t102 54.5v65q0 25 23.5 33t78.5 8v-107q53 -10 86.5 -34t33.5 -43q0 -16 -11 -43t-28 -47q-50 64 -120 64q-41 0 -64 -18.5t-23 -45.5q0 -54 60 -55q27 0 55 5z" />
    <glyph glyph-name="ampersand.ss04" horiz-adv-x="619" 
d="M400 136v236q-175 -7 -262 -7q0 -67 12.5 -87t37.5 -20q32 0 68.5 16t50.5 37q25 -39 25 -79q0 -25 -46.5 -49t-109.5 -24q-81 0 -117.5 56.5t-36.5 185.5q0 138 39.5 210.5t131.5 72.5q57 0 96 -34t38 -99q0 -48 -11 -68.5t-39 -31.5l123 19v26q0 67 26.5 88.5
t85.5 21.5v-123l92 13q0 -64 -11 -85t-45 -26l-36 -3v-237q0 -33 7 -48t25 -15q16 0 32 2t24 4l8 3q6 -29 6 -59q0 -42 -110 -42q-58 0 -81 30.5t-23 115.5zM223 541q0 53 -28 53q-8 0 -15.5 -3t-12.5 -10t-9 -14t-7 -18t-5 -19.5t-3 -22t-2 -21.5t-2 -21t-1 -18l26 5
q59 16 59 89z" />
    </font>
</defs>
</svg>
